<svg xmlns="http://www.w3.org/2000/svg" width="64" height="64" viewBox="-24.5305 63.7665 601.692 601.692">
  <!-- Same mark as the logo: traced healing hand cradling a spiral (sage tones) -->
  <path d="M0 0 C5.85201022 -0.30852435 9.22271162 0.6430584 13.921875 4.19140625 C15.359375 6.94140625 15.359375 6.94140625 15.921875 9.19140625 C16.581875 9.19140625 17.241875 9.19140625 17.921875 9.19140625 C23.39483539 19.71391748 25.62018255 29.33957542 24.921875 41.19140625 C25.581875 41.19140625 26.241875 41.19140625 26.921875 41.19140625 C27.87442419 48.38844454 28.07322541 55.43626092 28.046875 62.69140625 C28.05074219 63.78710938 28.05460938 64.8828125 28.05859375 66.01171875 C28.05666016 67.57019531 28.05666016 67.57019531 28.0546875 69.16015625 C28.05355957 70.10310547 28.05243164 71.04605469 28.05126953 72.01757812 C27.921875 74.19140625 27.921875 74.19140625 26.921875 75.19140625 C26.31414403 81.2102803 26.94482009 86.81484139 28.359375 92.671875 C29.99417262 100.04543283 30.72051254 107.28681505 31.171875 114.81640625 C31.2963501 116.75797607 31.2963501 116.75797607 31.42333984 118.73876953 C32.02704242 129.29767165 31.83855889 139.6619291 30.921875 150.19140625 C29.601875 149.86140625 28.281875 149.53140625 26.921875 149.19140625 C26.921875 148.53140625 26.921875 147.87140625 26.921875 147.19140625 C26.261875 147.19140625 25.601875 147.19140625 24.921875 147.19140625 C24.921875 148.18140625 24.921875 149.17140625 24.921875 150.19140625 C20.171875 148.31640625 20.171875 148.31640625 17.921875 147.19140625 C19.55599943 148.89980906 20.79093594 150.12593672 22.921875 151.19140625 C22.921875 152.84140625 22.921875 154.49140625 22.921875 156.19140625 C21.4827616 155.90780738 20.04561982 155.61419226 18.609375 155.31640625 C17.40861328 155.07277344 17.40861328 155.07277344 16.18359375 154.82421875 C13.921875 154.19140625 13.921875 154.19140625 10.921875 152.19140625 C10.921875 152.85140625 10.921875 153.51140625 10.921875 154.19140625 C10.261875 154.19140625 9.601875 154.19140625 8.921875 154.19140625 C8.921875 155.18140625 8.921875 156.17140625 8.921875 157.19140625 C10.901875 156.86140625 12.881875 156.53140625 14.921875 156.19140625 C14.921875 156.85140625 14.921875 157.51140625 14.921875 158.19140625 C15.499375 158.31515625 16.076875 158.43890625 16.671875 158.56640625 C18.921875 159.19140625 18.921875 159.19140625 20.78125 160.24609375 C23.86102699 161.60614125 26.42266601 161.0577525 29.703125 160.67578125 C31.921875 161.19140625 31.921875 161.19140625 34.15625 163.46484375 C36.98466136 168.21814617 36.59908667 173.69330396 36.671875 179.06640625 C36.70152344 180.13632812 36.73117187 181.20625 36.76171875 182.30859375 C36.832103 184.93627233 36.88495494 187.56307989 36.921875 190.19140625 C37.581875 190.19140625 38.241875 190.19140625 38.921875 190.19140625 C38.92598389 191.07812012 38.93009277 191.96483398 38.93432617 192.87841797 C38.9615349 196.21529615 39.01085321 199.55040962 39.07446289 202.88671875 C39.09744906 204.3218275 39.11199247 205.7571003 39.11743164 207.19238281 C39.15760629 216.05552775 39.62316869 223.67998851 44.921875 231.19140625 C48.06523508 234.25809901 51.57541127 237.10325645 56.10546875 237.2734375 C60.77838447 236.71463129 63.97889984 235.93954045 67.921875 233.19140625 C68.581875 233.19140625 69.241875 233.19140625 69.921875 233.19140625 C71.74169869 228.44332929 72.37136021 223.93232763 72.703125 218.8984375 C72.76213989 218.11176193 72.82115479 217.32508636 72.88195801 216.51457214 C73.06919958 214.01148635 73.24652399 211.50785109 73.421875 209.00390625 C75.44638424 180.40143898 75.44638424 180.40143898 79.921875 176.19140625 C80.251875 175.20140625 80.581875 174.21140625 80.921875 173.19140625 C79.601875 173.19140625 78.281875 173.19140625 76.921875 173.19140625 C75.21466573 155.93639832 74.66213624 137.74449594 78.42089844 120.74731445 C79.99231094 112.73020066 80.04040802 104.50969019 80.21166992 96.36865234 C81.07886179 57.03441946 81.07886179 57.03441946 94.921875 43.19140625 C98.407444 40.63532232 101.69680288 40.83931691 105.921875 41.19140625 C109.99046151 42.16482508 113.07006964 43.41058467 116.171875 46.25390625 C123.96663682 59.33797074 123.39360297 72.08165947 122.046875 86.75390625 C121.96848389 87.62797119 121.89009277 88.50203613 121.80932617 89.40258789 C121.38675443 93.72594648 120.80454807 97.90020072 119.85546875 102.140625 C118.70625606 107.60742546 118.73946781 112.87649504 118.859375 118.44140625 C118.95983703 127.09300089 118.7583611 135.57261196 117.921875 144.19140625 C118.911875 144.19140625 119.901875 144.19140625 120.921875 144.19140625 C120.921875 144.85140625 120.921875 145.51140625 120.921875 146.19140625 C120.261875 146.19140625 119.601875 146.19140625 118.921875 146.19140625 C118.94507813 146.79726562 118.96828125 147.403125 118.9921875 148.02734375 C119.16518079 156.05917513 118.35769735 163.82892979 114.921875 171.19140625 C114.261875 171.19140625 113.601875 171.19140625 112.921875 171.19140625 C113.251875 172.84140625 113.581875 174.49140625 113.921875 176.19140625 C115.241875 176.19140625 116.561875 176.19140625 117.921875 176.19140625 C117.9471439 183.00902519 117.96470744 189.82663214 117.97680664 196.64428711 C117.98184833 198.96558076 117.98868151 201.28687122 117.99731445 203.6081543 C118.00938725 206.9366942 118.01510479 210.26519227 118.01953125 213.59375 C118.02469254 214.63853012 118.02985382 215.68331024 118.03517151 216.75975037 C118.03528481 218.20113121 118.03528481 218.20113121 118.03540039 219.67163086 C118.037621 220.52212509 118.03984161 221.37261932 118.04212952 222.24888611 C117.921875 224.19140625 117.921875 224.19140625 116.921875 225.19140625 C116.82096025 227.77330071 116.78216001 230.32787125 116.7890625 232.91015625 C116.78810577 233.6832312 116.78714905 234.45630615 116.78616333 235.25280762 C116.78548159 236.89038169 116.78733543 238.52795844 116.79150391 240.16552734 C116.79685229 242.68072546 116.79155874 245.19574498 116.78515625 247.7109375 C116.78581703 249.29817748 116.7870982 250.88541735 116.7890625 252.47265625 C116.78602615 253.60858215 116.78602615 253.60858215 116.78292847 254.76745605 C116.47733816 258.27156188 116.47733816 258.27156188 117.921875 261.19140625 C118.10639833 262.5826536 118.24457158 263.98017889 118.359375 265.37890625 C118.74384285 269.24189278 119.64401146 272.51754857 120.921875 276.19140625 C121.26590808 278.523186 121.60136702 280.85627666 121.921875 283.19140625 C122.251875 283.52140625 122.581875 283.85140625 122.921875 284.19140625 C123.00839111 285.60710748 123.02892404 287.02700125 123.01953125 288.4453125 C123.01630859 289.29931641 123.01308594 290.15332031 123.00976562 291.03320312 C123.00138672 291.93103516 122.99300781 292.82886719 122.984375 293.75390625 C122.97986328 294.65560547 122.97535156 295.55730469 122.97070312 296.48632812 C122.95887725 298.72141939 122.9423972 300.95638062 122.921875 303.19140625 C123.581875 303.19140625 124.241875 303.19140625 124.921875 303.19140625 C125.1117676 339.84652139 125.1117676 339.84652139 124.484375 352.87890625 C124.42552124 354.13900513 124.42552124 354.13900513 124.36547852 355.42456055 C124.05884581 360.91746463 124.05884581 360.91746463 122.921875 363.19140625 C122.69329386 365.22888255 122.51163222 367.27180928 122.359375 369.31640625 C122.27558594 370.41210938 122.19179688 371.5078125 122.10546875 372.63671875 C122.04488281 373.47976563 121.98429687 374.3228125 121.921875 375.19140625 C121.261875 375.19140625 120.601875 375.19140625 119.921875 375.19140625 C119.93347656 375.866875 119.94507813 376.54234375 119.95703125 377.23828125 C119.97056641 378.57632813 119.97056641 378.57632813 119.984375 379.94140625 C119.99597656 380.823125 120.00757813 381.70484375 120.01953125 382.61328125 C119.93013698 384.97329005 119.59100321 386.93639149 118.921875 389.19140625 C119.581875 389.52140625 120.241875 389.85140625 120.921875 390.19140625 C120.261875 390.19140625 119.601875 390.19140625 118.921875 390.19140625 C118.90769531 391.06023437 118.89351563 391.9290625 118.87890625 392.82421875 C118.44067335 403.41287326 118.44067335 403.41287326 115.484375 407.00390625 C112.921875 409.19140625 112.921875 409.19140625 110.921875 409.19140625 C110.80972656 409.90683594 110.69757813 410.62226563 110.58203125 411.359375 C109.87731495 414.38256623 108.78899702 416.75463313 107.359375 419.50390625 C106.90433594 420.38691406 106.44929688 421.26992188 105.98046875 422.1796875 C105.63113281 422.84355469 105.28179687 423.50742187 104.921875 424.19140625 C104.261875 424.19140625 103.601875 424.19140625 102.921875 424.19140625 C102.921875 425.18140625 102.921875 426.17140625 102.921875 427.19140625 C102.261875 427.19140625 101.601875 427.19140625 100.921875 427.19140625 C100.921875 427.85140625 100.921875 428.51140625 100.921875 429.19140625 C100.261875 429.19140625 99.601875 429.19140625 98.921875 429.19140625 C98.921875 429.85140625 98.921875 430.51140625 98.921875 431.19140625 C97.4678125 431.62453125 97.4678125 431.62453125 95.984375 432.06640625 C92.81523297 432.83355307 92.81523297 432.83355307 91.921875 435.19140625 C91.261875 435.19140625 90.601875 435.19140625 89.921875 435.19140625 C89.591875 436.18140625 89.261875 437.17140625 88.921875 438.19140625 C87.931875 438.19140625 86.941875 438.19140625 85.921875 438.19140625 C85.73625 438.76890625 85.550625 439.34640625 85.359375 439.94140625 C83.1763029 443.35838867 80.55399685 444.40720605 76.921875 446.19140625 C75.931875 446.19140625 74.941875 446.19140625 73.921875 446.19140625 C73.921875 446.85140625 73.921875 447.51140625 73.921875 448.19140625 C69.631875 448.85140625 65.341875 449.51140625 60.921875 450.19140625 C60.921875 450.85140625 60.921875 451.51140625 60.921875 452.19140625 C59.931875 452.19140625 58.941875 452.19140625 57.921875 452.19140625 C57.921875 452.85140625 57.921875 453.51140625 57.921875 454.19140625 C56.70628906 454.46855469 55.49070312 454.74570312 54.23828125 455.03125 C52.65360193 455.39694523 51.06896888 455.762841 49.484375 456.12890625 C48.68193359 456.31130859 47.87949219 456.49371094 47.05273438 456.68164062 C43.17234771 457.28801633 43.17234771 457.28801633 39.921875 459.19140625 C37.34982127 459.76297375 34.76403587 460.22010427 32.171875 460.69140625 C29.96341894 460.97090382 29.96341894 460.97090382 28.921875 462.19140625 C26.82055579 462.31742679 24.71443712 462.36719845 22.609375 462.37890625 C21.45824219 462.39308594 20.30710937 462.40726563 19.12109375 462.421875 C16.09775263 462.20407631 14.45621629 461.77458735 11.921875 460.19140625 C11.921875 460.85140625 11.921875 461.51140625 11.921875 462.19140625 C10.931875 462.19140625 9.941875 462.19140625 8.921875 462.19140625 C8.921875 461.20140625 8.921875 460.21140625 8.921875 459.19140625 C5.57934776 459.11712787 3.1182836 459.12593672 -0.078125 460.19140625 C-0.078125 459.53140625 -0.078125 458.87140625 -0.078125 458.19140625 C-1.37943359 458.52785156 -1.37943359 458.52785156 -2.70703125 458.87109375 C-6.82279738 459.26216307 -8.46142469 458.34337463 -12.015625 456.31640625 C-16.81132509 453.67754576 -16.81132509 453.67754576 -22.078125 452.50390625 C-25.37709112 452.16026395 -26.7907395 451.57028717 -29.078125 449.19140625 C-29.078125 448.20140625 -29.078125 447.21140625 -29.078125 446.19140625 C-29.84125 446.06765625 -30.604375 445.94390625 -31.390625 445.81640625 C-34.078125 445.19140625 -34.078125 445.19140625 -37.078125 443.19140625 C-37.408125 443.85140625 -37.738125 444.51140625 -38.078125 445.19140625 C-40.60071561 443.2172049 -41.0711058 442.22394983 -41.765625 439.00390625 C-41.9203125 437.61171875 -41.9203125 437.61171875 -42.078125 436.19140625 C-42.738125 436.19140625 -43.398125 436.19140625 -44.078125 436.19140625 C-48.14727842 432.020524 -49.71515591 428.93534742 -51.078125 423.19140625 C-51.56852932 421.77138933 -52.06917311 420.35488155 -52.578125 418.94140625 C-55.59096251 409.90691219 -56.42201314 400.92062487 -56.390625 391.44140625 C-56.40673828 390.45269531 -56.42285156 389.46398437 -56.43945312 388.4453125 C-56.4433509 382.60643816 -55.82606448 378.46516539 -53.078125 373.19140625 C-52.53414063 372.00160156 -51.99015625 370.81179688 -51.4296875 369.5859375 C-50.57503906 367.81283203 -50.57503906 367.81283203 -49.703125 366.00390625 C-48.85621094 364.21919922 -48.85621094 364.21919922 -47.9921875 362.3984375 C-46.02167207 359.09681879 -44.14904017 357.43553657 -41.078125 355.19140625 C-40.748125 354.49015625 -40.418125 353.78890625 -40.078125 353.06640625 C-38.66134736 350.40994818 -36.86304812 350.07085566 -34.078125 349.19140625 C-34.078125 348.20140625 -34.078125 347.21140625 -34.078125 346.19140625 C-27.87308273 339.98636398 -19.47608101 335.59082225 -11.078125 333.19140625 C-10.2325 332.84078125 -9.386875 332.49015625 -8.515625 332.12890625 C4.8994291 326.96927006 23.89372498 329.99937598 36.921875 335.19140625 C40.71938197 337.72307756 43.73919824 340.92916257 46.921875 344.19140625 C47.85 345.05765625 48.778125 345.92390625 49.734375 346.81640625 C51.921875 349.19140625 51.921875 349.19140625 51.921875 352.19140625 C52.581875 352.19140625 53.241875 352.19140625 53.921875 352.19140625 C55.4001976 355.14805144 54.98220283 357.93370362 54.921875 361.19140625 C55.581875 361.19140625 56.241875 361.19140625 56.921875 361.19140625 C58.97210493 377.08068817 58.97210493 377.08068817 56.921875 384.19140625 C56.261875 384.19140625 55.601875 384.19140625 54.921875 384.19140625 C54.921875 385.84140625 54.921875 387.49140625 54.921875 389.19140625 C53.931875 389.52140625 52.941875 389.85140625 51.921875 390.19140625 C51.18863704 392.20648983 51.18863704 392.20648983 50.921875 394.19140625 C49.931875 394.19140625 48.941875 394.19140625 47.921875 394.19140625 C47.921875 395.51140625 47.921875 396.83140625 47.921875 398.19140625 C45.941875 398.52140625 43.961875 398.85140625 41.921875 399.19140625 C41.921875 399.85140625 41.921875 400.51140625 41.921875 401.19140625 C41.261875 401.19140625 40.601875 401.19140625 39.921875 401.19140625 C39.921875 402.18140625 39.921875 403.17140625 39.921875 404.19140625 C30.40887847 409.27975323 19.52499786 409.40883399 8.921875 408.19140625 C3.31749061 406.44230572 -1.24466476 403.82882105 -4.703125 399.00390625 C-7.39856759 393.49050095 -8.04499162 388.25871602 -7.078125 382.19140625 C-4.99791008 379.24710205 -2.28469704 377.79469227 0.921875 376.19140625 C6.64224788 375.48072856 10.37869357 376.09215703 15.1640625 379.23046875 C18.92018729 381.28381697 23.08412919 381.28812971 27.296875 381.06640625 C29.79012471 379.72388717 30.09261926 377.80675126 30.921875 375.19140625 C31.251875 374.53140625 31.581875 373.87140625 31.921875 373.19140625 C32.34405325 369.47623763 32.10085663 367.53505097 30.359375 364.19140625 C26.30583777 359.20243735 22.15464521 355.14873061 15.921875 353.19140625 C4.6510089 352.14327015 -4.45520284 353.37192837 -13.296875 360.6171875 C-21.05507716 367.47366879 -23.76470687 376.10352665 -24.4296875 386.34375 C-24.68139954 393.66309106 -24.28681722 400.48913791 -21.078125 407.19140625 C-20.68625 408.05765625 -20.294375 408.92390625 -19.890625 409.81640625 C-11.38404905 420.96295405 1.76137968 426.51847224 15.2578125 428.75390625 C29.92084913 430.50471659 40.91058199 428.00918769 53.08203125 419.484375 C58.50766252 415.10356956 63.05815763 409.9869823 66.921875 404.19140625 C67.581875 404.19140625 68.241875 404.19140625 68.921875 404.19140625 C68.921875 403.20140625 68.921875 402.21140625 68.921875 401.19140625 C69.581875 401.19140625 70.241875 401.19140625 70.921875 401.19140625 C71.0353125 400.46695312 71.14875 399.7425 71.265625 398.99609375 C72.14463268 395.23938237 73.908975 392.24380102 75.765625 388.88671875 C78.52646993 382.45096538 78.07564068 375.38369776 78.046875 368.50390625 C78.05074219 367.56740234 78.05460938 366.63089844 78.05859375 365.66601562 C78.05730469 364.76302734 78.05601562 363.86003906 78.0546875 362.9296875 C78.05299561 361.7082605 78.05299561 361.7082605 78.05126953 360.4621582 C77.92504656 358.24706422 77.5356418 356.31825754 76.921875 354.19140625 C76.261875 354.19140625 75.601875 354.19140625 74.921875 354.19140625 C74.75171875 353.31097656 74.5815625 352.43054688 74.40625 351.5234375 C74.16390625 350.36199219 73.9215625 349.20054687 73.671875 348.00390625 C73.43984375 346.85535156 73.2078125 345.70679688 72.96875 344.5234375 C71.83369851 340.91075497 70.44210936 338.98015156 67.921875 336.19140625 C67.39207031 335.54558594 66.86226562 334.89976562 66.31640625 334.234375 C59.30401124 326.00996109 52.39782202 319.98519053 42.5234375 315.41796875 C39.921875 314.19140625 39.921875 314.19140625 36.921875 312.19140625 C35.06160548 311.65790553 33.18343288 311.1853284 31.296875 310.75390625 C26.65351697 309.66333548 22.28084913 308.33053786 17.859375 306.546875 C15.27309421 306.0723759 14.10804275 306.82033984 11.921875 308.19140625 C11.591875 308.52140625 11.261875 308.85140625 10.921875 309.19140625 C8.37755173 309.35458138 5.84387373 309.47145961 3.296875 309.56640625 C-5.07599842 309.95749588 -12.91054167 311.34062382 -21.078125 313.19140625 C-23.44139386 313.67236433 -25.80564977 314.14015858 -28.17578125 314.5859375 C-32.79263989 315.56805256 -34.75564371 316.76174814 -38.078125 320.19140625 C-39.8415625 320.65546875 -39.8415625 320.65546875 -41.640625 321.12890625 C-45.24785337 321.8477339 -45.24785337 321.8477339 -46.828125 324.81640625 C-47.240625 325.60015625 -47.653125 326.38390625 -48.078125 327.19140625 C-49.068125 327.19140625 -50.058125 327.19140625 -51.078125 327.19140625 C-51.078125 328.18140625 -51.078125 329.17140625 -51.078125 330.19140625 C-52.068125 330.19140625 -53.058125 330.19140625 -54.078125 330.19140625 C-54.078125 331.18140625 -54.078125 332.17140625 -54.078125 333.19140625 C-55.068125 333.19140625 -56.058125 333.19140625 -57.078125 333.19140625 C-57.34625 333.78953125 -57.614375 334.38765625 -57.890625 335.00390625 C-59.078125 337.19140625 -59.078125 337.19140625 -60.640625 338.62890625 C-62.31853635 340.14930289 -62.31853635 340.14930289 -62.390625 342.69140625 C-62.6175 343.51640625 -62.844375 344.34140625 -63.078125 345.19140625 C-65.06132518 346.22432301 -67.06160306 347.22515615 -69.078125 348.19140625 C-69.81136296 350.20648983 -69.81136296 350.20648983 -70.078125 352.19140625 C-71.068125 352.85140625 -72.058125 353.51140625 -73.078125 354.19140625 C-73.43707757 357.18051488 -73.43707757 357.18051488 -73.390625 360.56640625 C-73.56640625 364.12109375 -73.56640625 364.12109375 -74.078125 367.19140625 C-77.078125 369.69140625 -77.078125 369.69140625 -80.078125 371.19140625 C-81.17935242 374.784554 -81.18563791 378.26783496 -81.140625 382.00390625 C-81.13160156 382.97972656 -81.12257813 383.95554687 -81.11328125 384.9609375 C-81.10167969 385.69699219 -81.09007812 386.43304688 -81.078125 387.19140625 C-82.068125 387.19140625 -83.058125 387.19140625 -84.078125 387.19140625 C-83.748125 388.11953125 -83.418125 389.04765625 -83.078125 390.00390625 C-81.81127893 394.31827014 -81.96565047 398.471567 -82.10546875 402.93359375 C-82.34137595 405.16098596 -82.34137595 405.16098596 -81.078125 406.19140625 C-79.72593384 412.79390213 -78.85035068 419.49878369 -78.078125 426.19140625 C-77.418125 426.19140625 -76.758125 426.19140625 -76.078125 426.19140625 C-75.83578125 427.06023437 -75.5934375 427.9290625 -75.34375 428.82421875 C-73.45460148 436.06769097 -73.45460148 436.06769097 -69.828125 442.50390625 C-67.37983205 446.26378472 -67.77327039 448.77101439 -68.078125 453.19140625 C-67.418125 453.19140625 -66.758125 453.19140625 -66.078125 453.19140625 C-65.4903125 454.64546875 -65.4903125 454.64546875 -64.890625 456.12890625 C-63.40217613 459.41317016 -63.40217613 459.41317016 -60.390625 460.06640625 C-59.6275 460.10765625 -58.864375 460.14890625 -58.078125 460.19140625 C-57.830625 461.26390625 -57.583125 462.33640625 -57.328125 463.44140625 C-56.03628234 467.31693423 -55.33029638 468.81820011 -52.078125 471.19140625 C-49.75264493 471.88497048 -47.41932055 472.55289837 -45.078125 473.19140625 C-43.140625 474.56640625 -43.140625 474.56640625 -42.078125 476.19140625 C-42.078125 477.51140625 -42.078125 478.83140625 -42.078125 480.19140625 C-41.418125 480.19140625 -40.758125 480.19140625 -40.078125 480.19140625 C-40.078125 481.18140625 -40.078125 482.17140625 -40.078125 483.19140625 C-39.418125 482.86140625 -38.758125 482.53140625 -38.078125 482.19140625 C-35.4057629 482.05725153 -32.75562012 482.14822084 -30.078125 482.19140625 C-30.078125 483.18140625 -30.078125 484.17140625 -30.078125 485.19140625 C-28.758125 485.19140625 -27.438125 485.19140625 -26.078125 485.19140625 C-26.078125 486.18140625 -26.078125 487.17140625 -26.078125 488.19140625 C-25.748125 487.53140625 -25.418125 486.87140625 -25.078125 486.19140625 C-22.31536323 486.71409091 -19.7520374 487.30010212 -17.078125 488.19140625 C-17.078125 489.84140625 -17.078125 491.49140625 -17.078125 493.19140625 C-15.428125 493.52140625 -13.778125 493.85140625 -12.078125 494.19140625 C-12.408125 492.54140625 -12.738125 490.89140625 -13.078125 489.19140625 C-12.088125 489.52140625 -11.098125 489.85140625 -10.078125 490.19140625 C-10.078125 490.85140625 -10.078125 491.51140625 -10.078125 492.19140625 C-5.30271703 493.14648784 -0.92433549 493.26957094 3.921875 493.19140625 C7.71745381 493.19140625 9.55090117 493.69319566 12.921875 495.19140625 C12.921875 494.53140625 12.921875 493.87140625 12.921875 493.19140625 C14.241875 492.86140625 15.561875 492.53140625 16.921875 492.19140625 C16.921875 492.85140625 16.921875 493.51140625 16.921875 494.19140625 C17.46714844 494.03542969 18.01242187 493.87945313 18.57421875 493.71875 C24.42552852 492.20841192 28.95762487 492.24469988 34.921875 493.19140625 C34.921875 492.53140625 34.921875 491.87140625 34.921875 491.19140625 C36.015 491.08828125 37.108125 490.98515625 38.234375 490.87890625 C41.84027665 490.57700055 41.84027665 490.57700055 43.40625 488.64453125 C44.921875 487.19140625 44.921875 487.19140625 48.859375 487.25390625 C49.64570313 487.28226563 50.43203125 487.310625 51.2421875 487.33984375 C58.10834242 486.95950281 64.51531668 484.31377207 69.921875 480.19140625 C71.56577741 479.45112327 73.23461797 478.76419968 74.921875 478.12890625 C78.01589034 476.95450104 80.98549231 475.72077223 83.921875 474.19140625 C83.921875 473.53140625 83.921875 472.87140625 83.921875 472.19140625 C84.56125 472.06765625 85.200625 471.94390625 85.859375 471.81640625 C86.8803125 471.50703125 86.8803125 471.50703125 87.921875 471.19140625 C88.251875 470.53140625 88.581875 469.87140625 88.921875 469.19140625 C91.25350878 468.51881958 93.5870789 467.85293181 95.921875 467.19140625 C100.49661114 465.063622 102.235965 462.38814063 104.921875 458.19140625 C106.54740783 456.48459678 108.21303495 454.8148043 109.921875 453.19140625 C111.0046875 452.04671875 111.0046875 452.04671875 112.109375 450.87890625 C113.921875 449.19140625 113.921875 449.19140625 115.921875 449.19140625 C115.9425 448.16015625 115.963125 447.12890625 115.984375 446.06640625 C117.10895944 441.41812391 118.55416732 440.39571088 122.20703125 437.609375 C124.40696274 435.79029725 125.5709274 433.67999393 126.921875 431.19140625 C127.581875 430.86140625 128.241875 430.53140625 128.921875 430.19140625 C129.60534182 428.53155827 130.26644906 426.86252536 130.921875 425.19140625 C131.65276808 423.76356679 132.40212539 422.3451114 133.1640625 420.93359375 C133.59074219 420.14210938 134.01742188 419.350625 134.45703125 418.53515625 C135.33865939 416.91069857 136.22398006 415.28823858 137.11328125 413.66796875 C143.22434817 402.29000632 145.86259705 391.17876188 147.671875 378.50390625 C147.89347943 377.01221316 148.11612888 375.52067492 148.33984375 374.02929688 C148.87922029 370.41836818 149.40451749 366.8055636 149.921875 363.19140625 C150.581875 363.19140625 151.241875 363.19140625 151.921875 363.19140625 C152.581875 360.88140625 153.241875 358.57140625 153.921875 356.19140625 C153.261875 356.19140625 152.601875 356.19140625 151.921875 356.19140625 C151.24238296 318.36634939 151.24238296 318.36634939 158.921875 310.19140625 C159.251875 309.20140625 159.581875 308.21140625 159.921875 307.19140625 C160.581875 307.19140625 161.241875 307.19140625 161.921875 307.19140625 C161.8290625 305.61359375 161.8290625 305.61359375 161.734375 304.00390625 C161.77073692 293.71348286 165.32766729 284.2527092 169.921875 275.19140625 C170.581875 275.19140625 171.241875 275.19140625 171.921875 275.19140625 C172.01339844 274.6396875 172.10492188 274.08796875 172.19921875 273.51953125 C174.80481539 265.12528479 182.67430627 258.07699139 188.921875 252.19140625 C189.85 251.26328125 190.778125 250.33515625 191.734375 249.37890625 C192.45625 248.65703125 193.178125 247.93515625 193.921875 247.19140625 C194.6025 246.41796875 194.6025 246.41796875 195.296875 245.62890625 C203.03650389 238.78231147 212.79328539 236.20603388 222.8359375 235.86328125 C225.48700599 236.28030326 226.30134463 237.08962747 227.921875 239.19140625 C229.06518013 242.62132163 229.12569151 245.39004785 229.171875 249.00390625 C229.19765625 250.20660156 229.2234375 251.40929687 229.25 252.6484375 C228.8950283 256.4812867 227.84390087 258.88855652 225.921875 262.19140625 C225.261875 262.19140625 224.601875 262.19140625 223.921875 262.19140625 C223.64472656 263.39539063 223.36757813 264.599375 223.08203125 265.83984375 C222.71627821 267.41539532 222.35038555 268.99091448 221.984375 270.56640625 C221.80197266 271.36046875 221.61957031 272.15453125 221.43164062 272.97265625 C221.16577148 274.11347656 221.16577148 274.11347656 220.89453125 275.27734375 C220.73218994 275.97907715 220.56984863 276.68081055 220.40258789 277.40380859 C219.921875 279.19140625 219.921875 279.19140625 218.921875 281.19140625 C218.261875 281.19140625 217.601875 281.19140625 216.921875 281.19140625 C216.81875 282.16078125 216.715625 283.13015625 216.609375 284.12890625 C215.59827334 291.17813611 212.80946493 297.72870499 209.921875 304.19140625 C209.261875 304.19140625 208.601875 304.19140625 207.921875 304.19140625 C207.82390625 305.08859375 207.7259375 305.98578125 207.625 306.91015625 C206.4657121 316.58421393 204.44467524 325.78824171 201.921875 335.19140625 C201.58505372 336.52386275 201.24963998 337.85669317 200.921875 339.19140625 C200.261875 339.19140625 199.601875 339.19140625 198.921875 339.19140625 C198.261875 344.80140625 197.601875 350.41140625 196.921875 356.19140625 C196.261875 356.19140625 195.601875 356.19140625 194.921875 356.19140625 C194.86128906 357.23941406 194.80070312 358.28742188 194.73828125 359.3671875 C194.65385762 360.74610673 194.56921053 362.1250123 194.484375 363.50390625 C194.42540039 364.5393457 194.42540039 364.5393457 194.36523438 365.59570312 C194.17260085 368.6630216 193.89864783 371.26108777 192.921875 374.19140625 C192.79460855 375.81476048 192.69381869 377.44026205 192.609375 379.06640625 C191.97855589 386.69728263 190.20517159 394.76646136 185.921875 401.19140625 C183.27354872 407.38772947 182.32690412 413.50144254 181.921875 420.19140625 C181.261875 420.19140625 180.601875 420.19140625 179.921875 420.19140625 C179.591875 423.49140625 179.261875 426.79140625 178.921875 430.19140625 C177.601875 430.52140625 176.281875 430.85140625 174.921875 431.19140625 C174.921875 433.83140625 174.921875 436.47140625 174.921875 439.19140625 C174.261875 439.19140625 173.601875 439.19140625 172.921875 439.19140625 C172.921875 440.18140625 172.921875 441.17140625 172.921875 442.19140625 C172.261875 442.19140625 171.601875 442.19140625 170.921875 442.19140625 C170.921875 443.18140625 170.921875 444.17140625 170.921875 445.19140625 C170.261875 445.19140625 169.601875 445.19140625 168.921875 445.19140625 C169.004375 445.93390625 169.086875 446.67640625 169.171875 447.44140625 C168.921875 450.19140625 168.921875 450.19140625 167.109375 451.94140625 C163.96003428 455.18072813 163.12927265 458.91063275 161.921875 463.19140625 C161.261875 463.19140625 160.601875 463.19140625 159.921875 463.19140625 C159.86 463.91328125 159.798125 464.63515625 159.734375 465.37890625 C158.921875 468.19140625 158.921875 468.19140625 156.609375 470.44140625 C154.07741992 473.03224401 153.23800129 474.44675204 151.921875 477.69140625 C150.2263054 481.80146696 148.25083685 484.17948838 144.921875 487.19140625 C144.03737733 488.2669991 143.16315542 489.35108779 142.296875 490.44140625 C138.11820834 495.38472583 132.99976449 499.21836015 127.921875 503.19140625 C126.95121094 503.97837891 126.95121094 503.97837891 125.9609375 504.78125 C103.99128414 522.09794184 76.63828414 531.79008897 48.921875 534.19140625 C48.01574463 534.27608154 47.10961426 534.36075684 46.17602539 534.44799805 C38.02040305 535.15589675 29.90131141 535.3776559 21.72094727 535.37670898 C19.6217003 535.37889342 17.52298286 535.39713525 15.42382812 535.41601562 C1.96352662 535.4716923 -11.1835347 534.2803723 -24.078125 530.19140625 C-25.18027344 529.876875 -26.28242188 529.56234375 -27.41796875 529.23828125 C-49.07142247 522.67522804 -68.91250411 509.90798211 -85.078125 494.19140625 C-86.06182016 493.28051527 -87.04623495 492.37040101 -88.03125 491.4609375 C-121.47126019 460.04008605 -123.72098354 409.22999047 -125.078125 366.19140625 C-125.72282579 340.54943977 -125.72282579 340.54943977 -124.078125 328.19140625 C-122.47010567 315.19463145 -126.91724205 304.11741226 -131.12109375 291.99121094 C-132.28001939 288.60076215 -133.31585348 285.19073134 -134.328125 281.75390625 C-135.6695657 277.34882588 -137.24329967 273.1147846 -139.0078125 268.86328125 C-140.75987423 264.48952132 -142.28144026 260.03435426 -143.83203125 255.5859375 C-145.84146279 250.11196881 -148.17836217 244.92958889 -150.93334961 239.80151367 C-157.2771739 227.84134698 -165.1408796 209.87976406 -161.078125 196.19140625 C-161.68527344 196.1759375 -162.29242188 196.16046875 -162.91796875 196.14453125 C-165.078125 195.19140625 -165.078125 195.19140625 -166.45703125 192.05078125 C-166.8709405 190.68671994 -167.26421426 189.31628773 -167.640625 187.94140625 C-167.84969482 187.2134082 -168.05876465 186.48541016 -168.27416992 185.73535156 C-168.69477133 184.25049377 -169.10668325 182.76314647 -169.50976562 181.2734375 C-169.99726645 179.48760972 -170.52588283 177.71309469 -171.0625 175.94140625 C-172.9060706 169.26281089 -173.40662263 162.77188864 -173.515625 155.87890625 C-173.53794189 155.04262695 -173.56025879 154.20634766 -173.58325195 153.34472656 C-173.56174658 147.50224023 -172.3635376 143.06821316 -169.078125 138.19140625 C-165.25499247 134.55476799 -162.64116111 133.26955806 -157.328125 133.00390625 C-150.82980079 133.16992183 -146.51522366 134.32873296 -141.765625 138.94140625 C-136.88047611 144.73191092 -136.68784338 150.89354623 -136.078125 158.19140625 C-135.748125 159.18140625 -135.418125 160.17140625 -135.078125 161.19140625 C-135.738125 161.52140625 -136.398125 161.85140625 -137.078125 162.19140625 C-136.32662477 165.46914129 -136.32662477 165.46914129 -133.078125 167.19140625 C-132.85675107 169.81837689 -132.79650475 172.20034589 -132.890625 174.81640625 C-132.90416016 175.5228125 -132.91769531 176.22921875 -132.93164062 176.95703125 C-132.9670146 178.70214753 -133.02082279 180.44687233 -133.078125 182.19140625 C-132.418125 182.19140625 -131.758125 182.19140625 -131.078125 182.19140625 C-131.573125 185.16140625 -131.573125 185.16140625 -132.078125 188.19140625 C-131.418125 188.19140625 -130.758125 188.19140625 -130.078125 188.19140625 C-129.83578125 189.09761719 -129.5934375 190.00382813 -129.34375 190.9375 C-127.61557499 197.21875147 -125.80678399 203.25753852 -123.02734375 209.16796875 C-118.23629973 219.38097616 -118.23629973 219.38097616 -119.078125 224.19140625 C-121.80056157 231.38143103 -121.80056157 231.38143103 -125.03125 233.4296875 C-127.078125 234.19140625 -127.078125 234.19140625 -130.078125 234.19140625 C-129.088125 235.18140625 -128.098125 236.17140625 -127.078125 237.19140625 C-127.078125 236.53140625 -127.078125 235.87140625 -127.078125 235.19140625 C-121.328125 235.06640625 -121.328125 235.06640625 -119.078125 236.19140625 C-119.408125 234.21140625 -119.738125 232.23140625 -120.078125 230.19140625 C-119.418125 230.19140625 -118.758125 230.19140625 -118.078125 230.19140625 C-118.078125 231.51140625 -118.078125 232.83140625 -118.078125 234.19140625 C-117.088125 234.19140625 -116.098125 234.19140625 -115.078125 234.19140625 C-115.036875 234.81015625 -114.995625 235.42890625 -114.953125 236.06640625 C-114.664375 236.76765625 -114.375625 237.46890625 -114.078125 238.19140625 C-113.10875 238.50078125 -112.139375 238.81015625 -111.140625 239.12890625 C-108.078125 240.19140625 -108.078125 240.19140625 -106.828125 242.75390625 C-106.580625 243.55828125 -106.333125 244.36265625 -106.078125 245.19140625 C-105.418125 245.52140625 -104.758125 245.85140625 -104.078125 246.19140625 C-102.39154323 250.24551591 -101.01803261 254.31131813 -99.7890625 258.5234375 C-95.70362675 272.57477718 -95.70362675 272.57477718 -86.078125 283.19140625 C-80.61573029 283.024251 -77.3598115 281.5555885 -73.078125 278.19140625 C-71.50650206 275.04816036 -71.93521683 271.70122914 -71.953125 268.25390625 C-71.94925781 267.54427734 -71.94539063 266.83464844 -71.94140625 266.10351562 C-71.95898208 256.25226349 -73.07938042 247.30416127 -75.953125 237.87890625 C-80.48676562 222.11183658 -82.24330638 206.19986546 -82.8671875 189.84375 C-83.04090454 186.83587162 -83.38313966 184.11376263 -84.078125 181.19140625 C-85.068125 181.19140625 -86.058125 181.19140625 -87.078125 181.19140625 C-92.22742319 160.52117381 -94.27842427 140.46764008 -94.078125 119.19140625 C-93.088125 118.86140625 -92.098125 118.53140625 -91.078125 118.19140625 C-91.696875 117.16015625 -92.315625 116.12890625 -92.953125 115.06640625 C-102.45216721 98.27584572 -102.93029664 68.61321044 -98.078125 50.19140625 C-96.18012836 44.87351705 -93.93323946 41.30365911 -89.078125 38.19140625 C-84.42462887 36.64024087 -79.93366898 36.60539232 -75.078125 37.19140625 C-69.18933135 40.52468567 -65.92638178 46.14545733 -63.078125 52.19140625 C-62.02765483 56.2715131 -61.61183186 60.31106134 -61.265625 64.50390625 C-61.15436279 65.63747559 -61.04310059 66.77104492 -60.9284668 67.93896484 C-59.9522881 78.33938704 -59.33400431 88.74939793 -59.078125 99.19140625 C-59.05621094 99.98949707 -59.03429687 100.78758789 -59.01171875 101.60986328 C-58.77254181 111.27061854 -58.77254181 111.27061854 -59.078125 115.19140625 C-59.738125 115.85140625 -60.398125 116.51140625 -61.078125 117.19140625 C-61.078125 118.18140625 -61.078125 119.17140625 -61.078125 120.19140625 C-59.13802978 121.89672948 -59.13802978 121.89672948 -57.078125 123.19140625 C-57.408125 124.84140625 -57.738125 126.49140625 -58.078125 128.19140625 C-57.418125 128.19140625 -56.758125 128.19140625 -56.078125 128.19140625 C-56.078125 130.83140625 -56.078125 133.47140625 -56.078125 136.19140625 C-55.418125 136.19140625 -54.758125 136.19140625 -54.078125 136.19140625 C-54.078125 138.17140625 -54.078125 140.15140625 -54.078125 142.19140625 C-53.418125 142.19140625 -52.758125 142.19140625 -52.078125 142.19140625 C-52.078125 145.49140625 -52.078125 148.79140625 -52.078125 152.19140625 C-53.068125 152.19140625 -54.058125 152.19140625 -55.078125 152.19140625 C-55.078125 153.84140625 -55.078125 155.49140625 -55.078125 157.19140625 C-54.088125 157.52140625 -53.098125 157.85140625 -52.078125 158.19140625 C-50.953125 161.12890625 -50.953125 161.12890625 -50.078125 164.19140625 C-49.748125 164.85140625 -49.418125 165.51140625 -49.078125 166.19140625 C-50.398125 165.86140625 -51.718125 165.53140625 -53.078125 165.19140625 C-53.078125 165.85140625 -53.078125 166.51140625 -53.078125 167.19140625 C-54.068125 167.19140625 -55.058125 167.19140625 -56.078125 167.19140625 C-56.160625 167.78953125 -56.243125 168.38765625 -56.328125 169.00390625 C-57.30106927 171.84166036 -58.52261813 172.68816692 -61.078125 174.19140625 C-62.068125 174.19140625 -63.058125 174.19140625 -64.078125 174.19140625 C-64.078125 172.87140625 -64.078125 171.55140625 -64.078125 170.19140625 C-65.068125 170.19140625 -66.058125 170.19140625 -67.078125 170.19140625 C-67.078125 170.85140625 -67.078125 171.51140625 -67.078125 172.19140625 C-68.068125 172.19140625 -69.058125 172.19140625 -70.078125 172.19140625 C-70.078125 173.84140625 -70.078125 175.49140625 -70.078125 177.19140625 C-71.398125 177.19140625 -72.718125 177.19140625 -74.078125 177.19140625 C-74.14 177.81015625 -74.201875 178.42890625 -74.265625 179.06640625 C-74.53375 179.76765625 -74.801875 180.46890625 -75.078125 181.19140625 C-76.73016956 181.89352519 -78.39736269 182.56112038 -80.078125 183.19140625 C-80.408125 184.18140625 -80.738125 185.17140625 -81.078125 186.19140625 C-79.428125 186.19140625 -77.778125 186.19140625 -76.078125 186.19140625 C-76.078125 184.87140625 -76.078125 183.55140625 -76.078125 182.19140625 C-75.294375 182.06765625 -74.510625 181.94390625 -73.703125 181.81640625 C-70.93754678 181.40022632 -70.93754678 181.40022632 -69.078125 179.19140625 C-65.953125 179.56640625 -65.953125 179.56640625 -63.078125 180.19140625 C-63.078125 179.53140625 -63.078125 178.87140625 -63.078125 178.19140625 C-60.108125 177.86140625 -57.138125 177.53140625 -54.078125 177.19140625 C-53.748125 178.51140625 -53.418125 179.83140625 -53.078125 181.19140625 C-51.758125 181.19140625 -50.438125 181.19140625 -49.078125 181.19140625 C-44.06371722 187.00811928 -43.20020423 196.60489472 -41.578125 203.87890625 C-40.62076751 208.12219388 -39.4603379 212.02472794 -37.82421875 216.04296875 C-36.85230039 218.84168655 -36.26494736 221.67090037 -35.640625 224.56640625 C-33.75097513 233.05014679 -31.55805266 242.17279264 -24.203125 247.56640625 C-21.08638988 248.48309305 -19.17997929 248.14095348 -16.078125 247.19140625 C-12.17138698 244.01150321 -9.96382284 240.8366952 -8.078125 236.19140625 C-7.95097175 233.42276999 -7.97201407 230.95998525 -8.1875 228.22265625 C-8.23376526 227.46529175 -8.28003052 226.70792725 -8.32769775 225.9276123 C-8.47885182 223.51422906 -8.65309374 221.103163 -8.828125 218.69140625 C-8.93121174 217.10296277 -9.03278707 215.51442044 -9.1328125 213.92578125 C-9.51257932 207.99770161 -9.93800267 202.07316523 -10.37646484 196.14916992 C-10.51109131 194.31962769 -10.51109131 194.31962769 -10.6484375 192.453125 C-10.72852051 191.39826904 -10.80860352 190.34341309 -10.89111328 189.2565918 C-11.69698988 176.04800088 -11.69698988 176.04800088 -10.078125 171.19140625 C-9.95240714 168.63611768 -9.88805115 166.12194979 -9.890625 163.56640625 C-9.89070557 162.81294922 -9.89078613 162.05949219 -9.89086914 161.28320312 C-9.9499171 155.30133429 -10.52750589 149.47681092 -11.29174805 143.55004883 C-12.86420336 131.27651099 -13.16671597 119.05573776 -13.203125 106.69140625 C-13.20779785 105.59320557 -13.2124707 104.49500488 -13.21728516 103.36352539 C-13.20777874 98.56607594 -13.10385748 93.91566692 -12.4453125 89.16015625 C-12.06937201 85.09679947 -12.25635284 84.50364398 -14.078125 81.19140625 C-17.28139618 68.59289471 -17.54036766 55.55355337 -17.953125 42.62890625 C-18.00051315 41.3795932 -18.00051315 41.3795932 -18.04885864 40.1050415 C-18.45289814 28.96308079 -18.41345681 19.22898914 -12.578125 9.31640625 C-12.1759375 8.61773437 -11.77375 7.9190625 -11.359375 7.19921875 C-7.65567301 1.39524672 -7.65567301 1.39524672 -4.953125 0.44140625 C-3.30177173 0.29781031 -1.65059827 0.15202879 0 0 Z " fill="#42583f" transform="translate(248.078,97.8086)"/>
  <path d="M0 0 C1.35862973 3.90480249 0.89469712 7.7101776 0.5625 11.75 C0.51029297 12.44738281 0.45808594 13.14476562 0.40429688 13.86328125 C0.27525928 15.57596203 0.13840386 17.28805066 0 19 C0.66 19 1.32 19 2 19 C2 24.61 2 30.22 2 36 C1.34 35.67 0.68 35.34 0 35 C-1.37606143 35.03140389 -2.75143097 35.09895984 -4.125 35.1875 C-9.35176607 35.28068384 -12.52772573 33.60205048 -17 31 C-17 30.34 -17 29.68 -17 29 C-18.98 29.33 -20.96 29.66 -23 30 C-23 29.01 -23 28.02 -23 27 C-22.34 27 -21.68 27 -21 27 C-21 26.34 -21 25.68 -21 25 C-17 26.33333333 -13 27.66666667 -9 29 C-9 27.35 -9 25.7 -9 24 C-11.475 23.01 -11.475 23.01 -14 22 C-14 21.34 -14 20.68 -14 20 C-9.25 21.875 -9.25 21.875 -7 23 C-7 22.01 -7 21.02 -7 20 C-6.34 20 -5.68 20 -5 20 C-4.67 20.66 -4.34 21.32 -4 22 C-3.01 22.33 -2.02 22.66 -1 23 C-1.00785522 22.11477661 -1.00785522 22.11477661 -1.01586914 21.21166992 C-1.03666047 18.53695745 -1.04966701 15.86226199 -1.0625 13.1875 C-1.07087891 12.25873047 -1.07925781 11.32996094 -1.08789062 10.37304688 C-1.09272461 9.0340332 -1.09272461 9.0340332 -1.09765625 7.66796875 C-1.10551147 6.43469849 -1.10551147 6.43469849 -1.11352539 5.17651367 C-1 3 -1 3 0 0 Z " fill="#9ab192" transform="translate(280,225)"/>
  <path d="M0 0 C0.33 0.66 0.66 1.32 1 2 C1.66 2 2.32 2 3 2 C4.52150158 5.04300316 4.23899393 7.654085 4 11 C3.01 11.66 2.02 12.32 1 13 C0.42251197 14.96361864 0.42251197 14.96361864 0.3125 17.125 C0.209375 18.40375 0.10625 19.6825 0 21 C0.99 21.33 1.98 21.66 3 22 C1.68 22 0.36 22 -1 22 C-1.33 21.01 -1.66 20.02 -2 19 C-4.97 19 -7.94 19 -11 19 C-11 19.66 -11 20.32 -11 21 C-11.886875 20.938125 -12.77375 20.87625 -13.6875 20.8125 C-17.36731392 21.02079135 -18.95389395 22.05387669 -22 24 C-22.66 23.67 -23.32 23.34 -24 23 C-24 24.32 -24 25.64 -24 27 C-25.65 27 -27.3 27 -29 27 C-28.67 25.68 -28.34 24.36 -28 23 C-26.35 22.67 -24.7 22.34 -23 22 C-22.67 20.68 -22.34 19.36 -22 18 C-20.68 18 -19.36 18 -18 18 C-18 16.35 -18 14.7 -18 13 C-17.01 13 -16.02 13 -15 13 C-15 12.34 -15 11.68 -15 11 C-14.01 11 -13.02 11 -12 11 C-12 12.32 -12 13.64 -12 15 C-7.66029083 13.21190271 -7.66029083 13.21190271 -4.625 9.8125 C-4.315625 8.9153125 -4.315625 8.9153125 -4 8 C-3.01 8 -2.02 8 -1 8 C-1 7.34 -1 6.68 -1 6 C-0.01 6 0.98 6 2 6 C1.34 5.34 0.68 4.68 0 4 C0 2.68 0 1.36 0 0 Z " fill="#9bb293" transform="translate(196,257)"/>
  <path d="M0 0 C0.33 0.99 0.66 1.98 1 3 C1.66 3 2.32 3 3 3 C3.24234375 3.86882813 3.4846875 4.73765625 3.734375 5.6328125 C5.62352352 12.87628472 5.62352352 12.87628472 9.25 19.3125 C11.69829295 23.07237847 11.30485461 25.57960814 11 30 C9.68 29.34 8.36 28.68 7 28 C7 25.69 7 23.38 7 21 C5.35 21.66 3.7 22.32 2 23 C0.4375 21.25 0.4375 21.25 -1 19 C-0.75 17.0625 -0.75 17.0625 0 15 C0.34060811 13.33480481 0.67558396 11.66842534 1 10 C-0.32 9.67 -1.64 9.34 -3 9 C-3 8.34 -3 7.68 -3 7 C-3.66 7 -4.32 7 -5 7 C-5 6.01 -5 5.02 -5 4 C-4.01 4.33 -3.02 4.66 -2 5 C-2 5.66 -2 6.32 -2 7 C-1.01 7 -0.02 7 1 7 C0.67 4.69 0.34 2.38 0 0 Z " fill="#5b7157" transform="translate(169,521)"/>
  <path d="M0 0 C0.33 0 0.66 0 1 0 C1 4.29 1 8.58 1 13 C1.66 13 2.32 13 3 13 C3.95254919 20.19703829 4.15135041 27.24485467 4.125 34.5 C4.12886719 35.59570312 4.13273437 36.69140625 4.13671875 37.8203125 C4.13542969 38.85929687 4.13414062 39.89828125 4.1328125 40.96875 C4.13168457 41.91169922 4.13055664 42.85464844 4.12939453 43.82617188 C4 46 4 46 3 47 C2.92741054 49.18639453 2.91626217 51.37500389 2.9375 53.5625 C2.94652344 54.76003906 2.95554687 55.95757812 2.96484375 57.19140625 C2.97644531 58.11824219 2.98804688 59.04507813 3 60 C2.34 60 1.68 60 1 60 C1 60.66 1 61.32 1 62 C-0.485 62.495 -0.485 62.495 -2 63 C-2.99 63.99 -2.99 63.99 -4 65 C-6.125 62.9375 -6.125 62.9375 -8 60 C-7.25 56.1875 -7.25 56.1875 -6 53 C-5.01 53 -4.02 53 -3 53 C-2.67 53.99 -2.34 54.98 -2 56 C-1.34 56.33 -0.68 56.66 0 57 C0.06058594 56.21753906 0.12117188 55.43507812 0.18359375 54.62890625 C0.26738281 53.61699219 0.35117187 52.60507813 0.4375 51.5625 C0.55931641 50.04849609 0.55931641 50.04849609 0.68359375 48.50390625 C1 46 1 46 2 45 C2.08790975 42.70848583 2.10694038 40.41427476 2.09765625 38.12109375 C2.0962413 37.4344313 2.09482635 36.74776886 2.09336853 36.04029846 C2.08775479 33.83932199 2.07520007 31.63844591 2.0625 29.4375 C2.05748676 27.94856917 2.05292355 26.45963676 2.04882812 24.97070312 C2.03778093 21.31376925 2.02050713 17.65689442 2 14 C1.34 14 0.68 14 0 14 C0 9.38 0 4.76 0 0 Z " fill="#81977a" transform="translate(272,126)"/>
  <path d="M0 0 C1.95738938 3.91477876 2.43554797 6.72629175 3 11 C3.33 11.33 3.66 11.66 4 12 C4.08651611 13.41570123 4.10704904 14.835595 4.09765625 16.25390625 C4.09443359 17.10791016 4.09121094 17.96191406 4.08789062 18.84179688 C4.07951172 19.73962891 4.07113281 20.63746094 4.0625 21.5625 C4.05798828 22.46419922 4.05347656 23.36589844 4.04882812 24.29492188 C4.03700225 26.53001314 4.0205222 28.76497437 4 31 C4.66 31 5.32 31 6 31 C6.20638953 70.83952909 6.20638953 70.83952909 5 89 C4.67 89 4.34 89 4 89 C4 85.37 4 81.74 4 78 C3.01 78 2.02 78 1 78 C1 77.01 1 76.02 1 75 C1.99 75 2.98 75 4 75 C4.33 60.81 4.66 46.62 5 32 C4.34 32 3.68 32 3 32 C2.67 26.06 2.34 20.12 2 14 C1.34 14 0.68 14 0 14 C0 9.38 0 4.76 0 0 Z " fill="#6a8165" transform="translate(367,370)"/>
  <path d="M0 0 C0.33 0.66 0.66 1.32 1 2 C2.32 2 3.64 2 5 2 C5.0252689 8.81761894 5.04283244 15.63522589 5.05493164 22.45288086 C5.05997333 24.77417451 5.06680651 27.09546497 5.07543945 29.41674805 C5.08751225 32.74528795 5.09322979 36.07378602 5.09765625 39.40234375 C5.10281754 40.44712387 5.10797882 41.49190399 5.11329651 42.56834412 C5.11337204 43.52926468 5.11344757 44.49018524 5.11352539 45.48022461 C5.115746 46.33071884 5.11796661 47.18121307 5.12025452 48.05747986 C5 50 5 50 4 51 C3.84011509 53.51880517 3.74065775 56.01342266 3.68359375 58.53515625 C3.66281265 59.28840683 3.64203156 60.04165741 3.62062073 60.81773376 C3.55504575 63.2325599 3.49620379 65.64749798 3.4375 68.0625 C3.3943223 69.69597529 3.35070827 71.3294391 3.30664062 72.96289062 C3.19935638 76.97514464 3.09811179 80.98751164 3 85 C2.67 85 2.34 85 2 85 C1.97687084 77.71578452 1.95908199 70.4315769 1.94818783 63.14733219 C1.94296025 59.76528187 1.93586489 56.3832566 1.92456055 53.0012207 C1.91165733 49.11670223 1.90677076 45.23219403 1.90234375 41.34765625 C1.89718246 40.12788589 1.89202118 38.90811554 1.88670349 37.65138245 C1.88662796 36.53029587 1.88655243 35.40920929 1.88647461 34.25415039 C1.884254 33.26153702 1.88203339 32.26892365 1.87974548 31.24623108 C2 29 2 29 3 28 C3.08737645 26.14630389 3.10698153 24.28932459 3.09765625 22.43359375 C3.09443359 21.30888672 3.09121094 20.18417969 3.08789062 19.02539062 C3.07951172 17.84138672 3.07113281 16.65738281 3.0625 15.4375 C3.05798828 14.24962891 3.05347656 13.06175781 3.04882812 11.83789062 C3.03699675 8.89187774 3.02051287 5.94596319 3 3 C2.01 3 1.02 3 0 3 C0 2.01 0 1.02 0 0 Z " fill="#6f8569" transform="translate(361,272)"/>
  <path d="M0 0 C0.33 0 0.66 0 1 0 C1.74306213 11.77104768 2.28410454 23.24550464 1 35 C1.99 35 2.98 35 4 35 C4 35.66 4 36.32 4 37 C3.34 37 2.68 37 2 37 C2.01160156 37.64066406 2.02320313 38.28132813 2.03515625 38.94140625 C2.08883119 44.08653222 1.88169578 48.93024924 1 54 C0.67 54 0.34 54 0 54 C0 50.37 0 46.74 0 43 C-0.99 43 -1.98 43 -3 43 C-3 39.7 -3 36.4 -3 33 C-2.01 33 -1.02 33 0 33 C-0.08378906 32.12601563 -0.16757812 31.25203125 -0.25390625 30.3515625 C-1.10033826 20.13009243 -0.76093781 10.21998018 0 0 Z " fill="#6c8367" transform="translate(365,207)"/>
  <path d="M0 0 C0.33 0 0.66 0 1 0 C1 4.95 1 9.9 1 15 C1.66 15 2.32 15 3 15 C2.67 16.98 2.34 18.96 2 21 C2.66 21 3.32 21 4 21 C4.66 23.97 5.32 26.94 6 30 C5.34 30.33 4.68 30.66 4 31 C3.01 28.36 2.02 25.72 1 23 C0.01 23 -0.98 23 -2 23 C-4.66666667 23 -7.33333333 23 -10 23 C-10 22.34 -10 21.68 -10 21 C-9.01 21 -8.02 21 -7 21 C-7 20.34 -7 19.68 -7 19 C-6.34 19 -5.68 19 -5 19 C-5 18.34 -5 17.68 -5 17 C-4.01 17 -3.02 17 -2 17 C-2 17.99 -2 18.98 -2 20 C-1.34 20 -0.68 20 0 20 C-0.2165625 19.28714844 -0.433125 18.57429688 -0.65625 17.83984375 C-2.24297813 12.38179283 -3.37896069 7.68441034 -3 2 C-2.34 2.66 -1.68 3.32 -1 4 C-0.67 2.68 -0.34 1.36 0 0 Z " fill="#798f73" transform="translate(114,265)"/>
  <path d="M0 0 C3.875 0.875 3.875 0.875 5 2 C6.1446875 1.7525 6.1446875 1.7525 7.3125 1.5 C10.00856207 0.99840706 11.44020291 1.1467343 14 2 C14 2.99 14 3.98 14 5 C12.33333333 5.33333333 10.66666667 5.66666667 9 6 C7.7315625 6.309375 7.7315625 6.309375 6.4375 6.625 C3.89216545 7.01658993 2.43943086 6.69108612 0 6 C-2.79080349 12.95068039 -3.63419196 19.54508438 -4 27 C-4.33 27 -4.66 27 -5 27 C-5 20.73 -5 14.46 -5 8 C-4.01 7.67 -3.02 7.34 -2 7 C-1.22227595 4.66682784 -0.57584432 2.38564077 0 0 Z " fill="#60765b" transform="translate(159,209)"/>
  <path d="M0 0 C0.99 0 1.98 0 3 0 C3 1.32 3 2.64 3 4 C3.66 4.33 4.32 4.66 5 5 C2.69 4.67 0.38 4.34 -2 4 C-1.67 4.99 -1.34 5.98 -1 7 C1.64 7 4.28 7 7 7 C6.01 7.33 5.02 7.66 4 8 C4 8.66 4 9.32 4 10 C2.6696875 9.9071875 2.6696875 9.9071875 1.3125 9.8125 C-2.36731392 10.02079135 -3.95389395 11.05387669 -7 13 C-7.66 12.67 -8.32 12.34 -9 12 C-9 13.32 -9 14.64 -9 16 C-10.65 16 -12.3 16 -14 16 C-13.67 14.68 -13.34 13.36 -13 12 C-11.35 11.67 -9.7 11.34 -8 11 C-7.67 9.68 -7.34 8.36 -7 7 C-5.68 7 -4.36 7 -3 7 C-3 5.35 -3 3.7 -3 2 C-2.01 2 -1.02 2 0 2 C0 1.34 0 0.68 0 0 Z " fill="#6e8569" transform="translate(181,268)"/>
  <path d="M0 0 C0.99 0.33 1.98 0.66 3 1 C2.01 19.15 1.02 37.3 0 56 C-0.33 56 -0.66 56 -1 56 C-1.02497729 52.0347593 -1.0429894 48.06954995 -1.05493164 44.10424805 C-1.06235104 42.10268542 -1.07506659 40.10114467 -1.08789062 38.09960938 C-1.10319667 32.0231091 -1.02191567 26.10141377 -0.22485352 20.07641602 C0.19434767 16.20529103 0.10410886 12.32632776 0.0625 8.4375 C0.05798828 7.61958984 0.05347656 6.80167969 0.04882812 5.95898438 C0.03721198 3.97262353 0.01928448 1.9863012 0 0 Z " fill="#657c60" transform="translate(124,408)"/>
  <path d="M0 0 C0.80050781 0.12761719 1.60101563 0.25523437 2.42578125 0.38671875 C3.23402344 0.50660156 4.04226563 0.62648438 4.875 0.75 C5.48988281 0.85699219 6.10476563 0.96398437 6.73828125 1.07421875 C6.01705078 1.73357422 6.01705078 1.73357422 5.28125 2.40625 C3.31845916 4.52805174 3.11918208 6.25555259 2.73828125 9.07421875 C2.07828125 9.07421875 1.41828125 9.07421875 0.73828125 9.07421875 C0.73828125 9.73421875 0.73828125 10.39421875 0.73828125 11.07421875 C-0.25171875 10.74421875 -1.24171875 10.41421875 -2.26171875 10.07421875 C-2.26171875 8.75421875 -2.26171875 7.43421875 -2.26171875 6.07421875 C-5.56171875 6.07421875 -8.86171875 6.07421875 -12.26171875 6.07421875 C-12.26171875 5.41421875 -12.26171875 4.75421875 -12.26171875 4.07421875 C-11.16859375 3.97109375 -10.07546875 3.86796875 -8.94921875 3.76171875 C-5.33713073 3.46944703 -5.33713073 3.46944703 -3.82421875 1.51171875 C-2.26171875 0.07421875 -2.26171875 0.07421875 0 0 Z " fill="#52684e" transform="translate(295.262,584.926)"/>
  <path d="M0 0 C1.7520149 3.22144676 2.33861256 5.9301404 2.71484375 9.58984375 C3.05183221 12.43808867 3.55723844 15.23939518 4.0625 18.0625 C4.81650716 22.46925296 5.20275927 26.53929609 5 31 C4.67 30.34 4.34 29.68 4 29 C3.34 29 2.68 29 2 29 C2.0825 28.236875 2.165 27.47375 2.25 26.6875 C2.29166667 23.85416667 2.29166667 23.85416667 0 22.1875 C-0.66 21.795625 -1.32 21.40375 -2 21 C-1.125 17.125 -1.125 17.125 0 16 C0.07319621 13.30345146 0.09242537 10.63308542 0.0625 7.9375 C0.05798828 7.17888672 0.05347656 6.42027344 0.04882812 5.63867188 C0.0370068 3.75908129 0.01907078 1.87953101 0 0 Z " fill="#93aa8b" transform="translate(188,197)"/>
  <path d="M0 0 C0.66 0 1.32 0 2 0 C2.33 2.97 2.66 5.94 3 9 C2.34 9 1.68 9 1 9 C1 8.34 1 7.68 1 7 C-3.95 7 -8.9 7 -14 7 C-14 5.68 -14 4.36 -14 3 C-13.32453125 3.01160156 -12.6490625 3.02320313 -11.953125 3.03515625 C-11.06109375 3.04417969 -10.1690625 3.05320313 -9.25 3.0625 C-8.36828125 3.07410156 -7.4865625 3.08570313 -6.578125 3.09765625 C-4.2181162 3.00826198 -2.25501476 2.66912821 0 2 C0 1.34 0 0.68 0 0 Z " fill="#5f755a" transform="translate(356,203)"/>
  <path d="M0 0 C4 1.33333333 8 2.66666667 12 4 C12 3.34 12 2.68 12 2 C13.32 2 14.64 2 16 2 C16 2.99 16 3.98 16 5 C15.01 5.33 14.02 5.66 13 6 C13 6.99 13 7.98 13 9 C13.66 9.33 14.32 9.66 15 10 C10.64477147 9.49357808 7.55760365 8.61588503 4 6 C4 5.34 4 4.68 4 4 C2.02 4.33 0.04 4.66 -2 5 C-2 4.01 -2 3.02 -2 2 C-1.34 2 -0.68 2 0 2 C0 1.34 0 0.68 0 0 Z " fill="#869d7f" transform="translate(259,250)"/>
  <path d="M0 0 C0.99 0 1.98 0 3 0 C3.33 0.99 3.66 1.98 4 3 C4.66 3.33 5.32 3.66 6 4 C6.33 2.68 6.66 1.36 7 0 C6.95875 0.78375 6.9175 1.5675 6.875 2.375 C6.71271266 5.16116119 6.71271266 5.16116119 9 7 C8.34 7 7.68 7 7 7 C7 7.66 7 8.32 7 9 C6.01 9.33 5.02 9.66 4 10 C3.34 10.66 2.68 11.32 2 12 C-0.125 9.9375 -0.125 9.9375 -2 7 C-1.25 3.1875 -1.25 3.1875 0 0 Z " fill="#576d53" transform="translate(266,179)"/>
  <path d="M0 0 C0.66 0.99 1.32 1.98 2 3 C2.99 3 3.98 3 5 3 C5 4.32 5 5.64 5 7 C5.66 7 6.32 7 7 7 C6.67 8.32 6.34 9.64 6 11 C6 10.34 6 9.68 6 9 C5.01 9 4.02 9 3 9 C3 7.68 3 6.36 3 5 C2.34 5 1.68 5 1 5 C1.33 6.98 1.66 8.96 2 11 C-0.64 10.67 -3.28 10.34 -6 10 C-6 10.66 -6 11.32 -6 12 C-6.99 11.67 -7.98 11.34 -9 11 C-9 10.34 -9 9.68 -9 9 C-6.35261084 7.5393715 -5.10551666 7 -2 7 C-1.34 4.69 -0.68 2.38 0 0 Z " fill="#81977a" transform="translate(127,323)"/>
  <path d="M0 0 C4.21712557 -0.36146791 6.71110421 0.27491491 10 3 C10.3125 5.6875 10.3125 5.6875 10 8 C8.5608866 7.71640113 7.12374482 7.42278601 5.6875 7.125 C4.88699219 6.96257812 4.08648437 6.80015625 3.26171875 6.6328125 C1 6 1 6 -2 4 C-2 3.34 -2 2.68 -2 2 C-1.34 2 -0.68 2 0 2 C0 1.34 0 0.68 0 0 Z " fill="#4e654b" transform="translate(261,246)"/>
  <path d="M0 0 C2.6245228 0.99550865 3.95028727 1.93963454 5.75 4.125 C7.42728337 7.98275174 7.2127899 10.81513202 7 15 C5.68 14.34 4.36 13.68 3 13 C3 10.69 3 8.38 3 6 C1.35 6.66 -0.3 7.32 -2 8 C-1.67 6.68 -1.34 5.36 -1 4 C-0.34 4 0.32 4 1 4 C0.67 2.68 0.34 1.36 0 0 Z " fill="#576d52" transform="translate(173,536)"/>
  <path d="M0 0 C1.6045556 0.14148989 3.20863767 0.28835686 4.8125 0.4375 C5.70582031 0.51871094 6.59914063 0.59992188 7.51953125 0.68359375 C10 1 10 1 13 2 C13 3.32 13 4.64 13 6 C11.02 5.34 9.04 4.68 7 4 C6.34 5.32 5.68 6.64 5 8 C4.01 8 3.02 8 2 8 C-0.1519437 4.77208445 -0.20086443 3.71599191 0 0 Z " fill="#657c60" transform="translate(339,264)"/>
  <path d="M0 0 C0 0.66 0 1.32 0 2 C-2.64 2.33 -5.28 2.66 -8 3 C-8.33 4.65 -8.66 6.3 -9 8 C-16.42857143 10.14285714 -16.42857143 10.14285714 -20 11 C-20 10.34 -20 9.68 -20 9 C-21.32 8.67 -22.64 8.34 -24 8 C-19.8803623 6.70756464 -16.33168317 5.73747375 -12 6 C-12 5.34 -12 4.68 -12 4 C-11.01 4 -10.02 4 -9 4 C-9 3.34 -9 2.68 -9 2 C-3.375 0 -3.375 0 0 0 Z " fill="#83997c" transform="translate(318,546)"/>
  <path d="M0 0 C0.33 0 0.66 0 1 0 C1.1243417 15.37054735 0.90363196 30.65439298 0 46 C-0.33 46 -0.66 46 -1 46 C-1 42.37 -1 38.74 -1 35 C-1.99 35 -2.98 35 -4 35 C-4 34.01 -4 33.02 -4 32 C-3.01 32 -2.02 32 -1 32 C-0.67 21.44 -0.34 10.88 0 0 Z " fill="#597055" transform="translate(372,413)"/>
  <path d="M0 0 C0.66 0 1.32 0 2 0 C2 0.66 2 1.32 2 2 C2.66 2 3.32 2 4 2 C3.67 7.28 3.34 12.56 3 18 C2.67 18 2.34 18 2 18 C1.52486119 16.33701417 1.05127024 14.67356884 0.5859375 13.0078125 C0.02715258 11.09304284 -0.60964263 9.20155423 -1.25 7.3125 C-2 4 -2 4 -1.125 1.5625 C-0.75375 1.046875 -0.3825 0.53125 0 0 Z " fill="#52684e" transform="translate(197,510)"/>
  <path d="M0 0 C0.33 0 0.66 0 1 0 C1.60465428 11.33887596 2.18966094 22.64141683 2 34 C1.34 34 0.68 34 0 34 C0 34.99 0 35.98 0 37 C-0.66 37 -1.32 37 -2 37 C-1.34 31.39 -0.68 25.78 0 20 C-0.66 19.67 -1.32 19.34 -2 19 C-2 18.01 -2 17.02 -2 16 C-1.34 16 -0.68 16 0 16 C0 10.72 0 5.44 0 0 Z " fill="#546a50" transform="translate(187,176)"/>
  <path d="M0 0 C0.66 0 1.32 0 2 0 C2 0.66 2 1.32 2 2 C-1.75960806 5.75960806 -4.75900345 6.58894145 -10 7 C-9.67 7.99 -9.34 8.98 -9 10 C-9.90349594 11.01191545 -10.82340847 12.00918926 -11.75 13 C-12.51570312 13.8353125 -12.51570312 13.8353125 -13.296875 14.6875 C-15 16 -15 16 -19 16 C-19.33 16.66 -19.66 17.32 -20 18 C-20 17.01 -20 16.02 -20 15 C-19.01 15 -18.02 15 -17 15 C-17 14.01 -17 13.02 -17 12 C-16.38125 11.7525 -15.7625 11.505 -15.125 11.25 C-12.84987304 10.2076261 -12.84987304 10.2076261 -12.25 8.0625 C-10.46313845 5.11417844 -8.18401202 4.77500175 -4.97265625 3.80859375 C-2.74977176 2.8974312 -1.65602065 1.70320073 0 0 Z " fill="#91a88a" transform="translate(214,413)"/>
  <path d="M0 0 C0.66 0.33 1.32 0.66 2 1 C1.67 3.31 1.34 5.62 1 8 C0.34 8 -0.32 8 -1 8 C-1.1546875 8.7734375 -1.1546875 8.7734375 -1.3125 9.5625 C-2.24263866 12.86026435 -3.61395512 15.86633332 -5 19 C-6.32 19 -7.64 19 -9 19 C-9 19.66 -9 20.32 -9 21 C-9.99 20.67 -10.98 20.34 -12 20 C-11.34 20 -10.68 20 -10 20 C-10 19.34 -10 18.68 -10 18 C-9.34 18 -8.68 18 -8 18 C-8 17.01 -8 16.02 -8 15 C-7.34 15 -6.68 15 -6 15 C-5.7525 14.195625 -5.505 13.39125 -5.25 12.5625 C-3.73921353 8.25675857 -1.89811144 4.14635993 0 0 Z " fill="#8ea587" transform="translate(359,507)"/>
  <path d="M0 0 C0.66 0.33 1.32 0.66 2 1 C5 2.33333333 5 2.33333333 8 1 C8.33 2.98 8.66 4.96 9 7 C9.99 7.33 10.98 7.66 12 8 C10.68 8 9.36 8 8 8 C7.67 7.01 7.34 6.02 7 5 C2.38 5 -2.24 5 -7 5 C-7.33 3.68 -7.66 2.36 -8 1 C-6.865625 1.020625 -5.73125 1.04125 -4.5625 1.0625 C-1.18424326 1.41577477 -1.18424326 1.41577477 0 0 Z " fill="#93a98b" transform="translate(187,271)"/>
  <path d="M0 0 C0 0.66 0 1.32 0 2 C-3.55556591 5.39019075 -5.95575532 7.55491959 -11 8 C-11 9.65 -11 11.3 -11 13 C-12.65 13.33 -14.3 13.66 -16 14 C-16 11 -16 11 -14.1875 8.875 C-12 7 -12 7 -9 6 C-8.67 5.34 -8.34 4.68 -8 4 C-7.34 4 -6.68 4 -6 4 C-5.67 3.01 -5.34 2.02 -5 1 C-2 0 -2 0 0 0 Z " fill="#96ad8e" transform="translate(346,529)"/>
  <path d="M0 0 C0.33 0 0.66 0 1 0 C1 1.65 1 3.3 1 5 C1.99 5.33 2.98 5.66 4 6 C2.68 6 1.36 6 0 6 C-2.79080349 12.95068039 -3.63419196 19.54508438 -4 27 C-4.33 27 -4.66 27 -5 27 C-5 20.73 -5 14.46 -5 8 C-4.01 7.67 -3.02 7.34 -2 7 C-1.22227595 4.66682784 -0.57584432 2.38564077 0 0 Z " fill="#596f54" transform="translate(159,209)"/>
  <path d="M0 0 C1.32 0 2.64 0 4 0 C3.95875 0.7425 3.9175 1.485 3.875 2.25 C4.00593589 5.13058965 4.66850671 6.50345008 6 9 C6 9.99 6 10.98 6 12 C5.34 12 4.68 12 4 12 C4 11.34 4 10.68 4 10 C3.34 10 2.68 10 2 10 C2 11.98 2 13.96 2 16 C1.67 16 1.34 16 1 16 C0.67 10.72 0.34 5.44 0 0 Z " fill="#546a50" transform="translate(193,496)"/>
  <path d="M0 0 C0.33 0.66 0.66 1.32 1 2 C2.65 2 4.3 2 6 2 C6 2.33 6 2.66 6 3 C5.278125 3 4.55625 3 3.8125 3 C-0.5304966 4.54417657 -1.89652541 8.07053045 -4 12 C-4.66 11.67 -5.32 11.34 -6 11 C-6.36734694 5.48979592 -6.36734694 5.48979592 -4.6875 3.25 C-3.15968072 2.11828201 -1.58199378 1.05466252 0 0 Z " fill="#a2b999" transform="translate(240,96)"/>
  <path d="M0 0 C0.33 0.99 0.66 1.98 1 3 C1.33 2.34 1.66 1.68 2 1 C4.76276177 1.52268466 7.3260876 2.10869587 10 3 C10 4.65 10 6.3 10 8 C10.99 8.33 11.98 8.66 13 9 C11.35 9 9.7 9 8 9 C7.67 8.01 7.34 7.02 7 6 C3.48809191 4.77030122 3.48809191 4.77030122 0 4 C0 2.68 0 1.36 0 0 Z " fill="#63795e" transform="translate(221,583)"/>
  <path d="M0 0 C0.33 1.32 0.66 2.64 1 4 C0.34 4 -0.32 4 -1 4 C-0.67 4.99 -0.34 5.98 0 7 C-0.92578125 8.75390625 -0.92578125 8.75390625 -2.3125 10.5625 C-2.76238281 11.16191406 -3.21226562 11.76132812 -3.67578125 12.37890625 C-5 14 -5 14 -7 16 C-6.34 16.66 -5.68 17.32 -5 18 C-6.8125 19.0625 -6.8125 19.0625 -9 20 C-9.99 19.67 -10.98 19.34 -12 19 C-8.25 13.125 -8.25 13.125 -6 12 C-5.31653318 10.34015202 -4.65411685 8.67163195 -4 7 C-2.7239448 4.62948207 -1.36542483 2.32122221 0 0 Z " fill="#5c7358" transform="translate(383,516)"/>
  <path d="M0 0 C0.99 0 1.98 0 3 0 C4.10087193 7.01805857 4.09733092 13.90565767 4 21 C3.67 21 3.34 21 3 21 C3 17.37 3 13.74 3 10 C2.01 10 1.02 10 0 10 C0 6.7 0 3.4 0 0 Z " fill="#556b50" transform="translate(362,240)"/>
  <path d="M0 0 C0.33 0.66 0.66 1.32 1 2 C-0.28419041 3.67243402 -1.57757185 5.33781447 -2.875 7 C-3.59429687 7.928125 -4.31359375 8.85625 -5.0546875 9.8125 C-5.69664062 10.534375 -6.33859375 11.25625 -7 12 C-7.66 12 -8.32 12 -9 12 C-9.66 13.65 -10.32 15.3 -11 17 C-11.66 17 -12.32 17 -13 17 C-9.90891795 10.42229458 -5.2626285 4.95306211 0 0 Z " fill="#596f55" transform="translate(435,352)"/>
  <path d="M0 0 C1.32 0 2.64 0 4 0 C3.6875 1.9375 3.6875 1.9375 3 4 C2.01 4.33 1.02 4.66 0 5 C-0.66 4.67 -1.32 4.34 -2 4 C-2 5.32 -2 6.64 -2 8 C-3.65 8 -5.3 8 -7 8 C-6.67 6.68 -6.34 5.36 -6 4 C-4.35 3.67 -2.7 3.34 -1 3 C-0.67 2.01 -0.34 1.02 0 0 Z " fill="#748a6e" transform="translate(174,276)"/>
  <path d="M0 0 C0.66 0.99 1.32 1.98 2 3 C2.33 2.34 2.66 1.68 3 1 C3.33 2.65 3.66 4.3 4 6 C2.35 6.33 0.7 6.66 -1 7 C-1 7.66 -1 8.32 -1 9 C-1.66 9 -2.32 9 -3 9 C-3.1875 5.625 -3.1875 5.625 -3 2 C-2.01 1.34 -1.02 0.68 0 0 Z " fill="#50664c" transform="translate(99,283)"/>
  <path d="M0 0 C0.33 0 0.66 0 1 0 C1 1.98 1 3.96 1 6 C1.66 6 2.32 6 3 6 C3 9.3 3 12.6 3 16 C2.01 16 1.02 16 0 16 C-0.19441368 13.7089095 -0.38033135 11.41709663 -0.5625 9.125 C-0.71912109 7.21074219 -0.71912109 7.21074219 -0.87890625 5.2578125 C-1 2 -1 2 0 0 Z " fill="#748a6e" transform="translate(193,234)"/>
  <path d="M0 0 C0.66 0 1.32 0 2 0 C2.33 1.98 2.66 3.96 3 6 C3.66 6 4.32 6 5 6 C5 6.99 5 7.98 5 9 C5.66 8.67 6.32 8.34 7 8 C9.6723621 7.86584528 12.32250488 7.95681459 15 8 C14.67 8.66 14.34 9.32 14 10 C13.154375 9.95875 12.30875 9.9175 11.4375 9.875 C7.57786731 10.01535028 4.66311987 10.82780164 1 12 C1.01740234 11.07767578 1.01740234 11.07767578 1.03515625 10.13671875 C1.04417969 9.32847656 1.05320313 8.52023437 1.0625 7.6875 C1.07410156 6.88699219 1.08570313 6.08648438 1.09765625 5.26171875 C1.09657855 2.83138666 1.09657855 2.83138666 0 0 Z " fill="#5d7358" transform="translate(203,572)"/>
  <path d="M0 0 C1.65 0.33 3.3 0.66 5 1 C5.66 3.31 6.32 5.62 7 8 C5.02 8.99 5.02 8.99 3 10 C2.71125 9.21625 2.4225 8.4325 2.125 7.625 C1.15087746 4.90328368 1.15087746 4.90328368 -1 3 C-0.67 2.01 -0.34 1.02 0 0 Z " fill="#52684e" transform="translate(257,395)"/>
  <path d="M0 0 C1.35862973 3.90480249 0.89469712 7.7101776 0.5625 11.75 C0.51029297 12.44738281 0.45808594 13.14476562 0.40429688 13.86328125 C0.27525928 15.57596203 0.13840386 17.28805066 0 19 C0.66 19 1.32 19 2 19 C1.67 20.65 1.34 22.3 1 24 C-0.98 24 -2.96 24 -5 24 C-4.67 23.34 -4.34 22.68 -4 22 C-3.01 22.33 -2.02 22.66 -1 23 C-1.00523682 22.40985107 -1.01047363 21.81970215 -1.01586914 21.21166992 C-1.03666047 18.53695745 -1.04966701 15.86226199 -1.0625 13.1875 C-1.07087891 12.25873047 -1.07925781 11.32996094 -1.08789062 10.37304688 C-1.09111328 9.48037109 -1.09433594 8.58769531 -1.09765625 7.66796875 C-1.10289307 6.84578857 -1.10812988 6.0236084 -1.11352539 5.17651367 C-1 3 -1 3 0 0 Z " fill="#7b9174" transform="translate(280,225)"/>
  <path d="M0 0 C0 0.33 0 0.66 0 1 C-1.2065625 1.185625 -1.2065625 1.185625 -2.4375 1.375 C-3.283125 1.58125 -4.12875 1.7875 -5 2 C-5.33 2.66 -5.66 3.32 -6 4 C-6.66 4.144375 -7.32 4.28875 -8 4.4375 C-8.66 4.623125 -9.32 4.80875 -10 5 C-10.33 5.99 -10.66 6.98 -11 8 C-13.5625 9.1875 -13.5625 9.1875 -16 10 C-12.78937237 2.11936855 -8.00018129 -0.14815151 0 0 Z " fill="#556b50" transform="translate(354,139)"/>
  <path d="M0 0 C3.3 0 6.6 0 10 0 C10.66 1.65 11.32 3.3 12 5 C10 5 10 5 8.375 3.5 C7.92125 3.005 7.4675 2.51 7 2 C7.33 3.65 7.66 5.3 8 7 C6.35 6.67 4.7 6.34 3 6 C3 4.35 3 2.7 3 1 C2.01 0.67 1.02 0.34 0 0 Z " fill="#91a889" transform="translate(228,585)"/>
  <path d="M0 0 C0.33 0.66 0.66 1.32 1 2 C0.67 2.99 0.34 3.98 0 5 C-0.66 5 -1.32 5 -2 5 C-2.33 5.99 -2.66 6.98 -3 8 C-4.98 7.34 -6.96 6.68 -9 6 C-9 5.01 -9 4.02 -9 3 C-7.88625 2.87625 -6.7725 2.7525 -5.625 2.625 C-1.96896323 2.3534187 -1.96896323 2.3534187 0 0 Z " fill="#738a6d" transform="translate(363,264)"/>
  <path d="M0 0 C1.20054169 3.51825412 0.7757271 6.02756559 0 9.625 C-1.01755555 13.42773439 -1.01755555 13.42773439 0 17 C-0.27942455 18.67654729 -0.60828247 20.34608154 -1 22 C-2.32 21.67 -3.64 21.34 -5 21 C-4.34 21 -3.68 21 -3 21 C-3.061875 19.948125 -3.12375 18.89625 -3.1875 17.8125 C-3.22052363 11.70312877 -1.50603532 5.88070933 0 0 Z " fill="#566c52" transform="translate(413,384)"/>
  <path d="M0 0 C0.99 0 1.98 0 3 0 C2.6875 2.875 2.6875 2.875 2 6 C-1.4352048 8.29013653 -2.985331 8.17842973 -7 8 C-6.01 7.67 -5.02 7.34 -4 7 C-4.33 6.01 -4.66 5.02 -5 4 C-4.01 3.67 -3.02 3.34 -2 3 C-1.34 3.33 -0.68 3.66 0 4 C0 2.68 0 1.36 0 0 Z " fill="#a0b798" transform="translate(253,584)"/>
  <path d="M0 0 C0.99 0 1.98 0 3 0 C2.34 2.31 1.68 4.62 1 7 C-1.97 6.505 -1.97 6.505 -5 6 C-4.67 4.68 -4.34 3.36 -4 2 C-2.68 2 -1.36 2 0 2 C0 1.34 0 0.68 0 0 Z " fill="#9eb596" transform="translate(322,544)"/>
  <path d="M0 0 C2.70367525 2.62642739 5.22326049 5.23075938 7.5625 8.1875 C9.72122523 10.67833681 10.97388196 11.87921554 14 13 C11.36 12.67 8.72 12.34 6 12 C5.731875 11.236875 5.46375 10.47375 5.1875 9.6875 C4.19741865 7.00940089 4.19741865 7.00940089 2.4375 5.4375 C0.70553268 3.70553268 0.41012318 2.37871446 0 0 Z " fill="#546a50" transform="translate(152,370)"/>
  <path d="M0 0 C3.63 0 7.26 0 11 0 C12.72293135 4.46334184 13.22240791 8.10201231 13.125 12.875 C13.10695313 14.02742188 13.08890625 15.17984375 13.0703125 16.3671875 C13.03550781 17.67042969 13.03550781 17.67042969 13 19 C12.67 19 12.34 19 12 19 C11.93941406 18.19175781 11.87882812 17.38351562 11.81640625 16.55078125 C11.73261719 15.48214844 11.64882813 14.41351563 11.5625 13.3125 C11.48128906 12.25675781 11.40007812 11.20101563 11.31640625 10.11328125 C11.03548319 7.34913703 10.59843148 4.71054259 10 2 C6.7 1.67 3.4 1.34 0 1 C0 0.67 0 0.34 0 0 Z " fill="#889f81" transform="translate(465,333)"/>
  <path d="M0 0 C0.99 0 1.98 0 3 0 C3 0.99 3 1.98 3 3 C3.99 2.67 4.98 2.34 6 2 C5.67 2.99 5.34 3.98 5 5 C1.76421296 6.31828361 -1.55214012 6.07836045 -5 6 C-5 5.34 -5 4.68 -5 4 C-4.01 4 -3.02 4 -2 4 C-2 3.34 -2 2.68 -2 2 C-1.34 2 -0.68 2 0 2 C0 1.34 0 0.68 0 0 Z " fill="#61785c" transform="translate(109,282)"/>
  <path d="M0 0 C0.33 0.66 0.66 1.32 1 2 C-0.61425736 5.99316295 -2.08745208 8.98444501 -6 11 C-8.25 10.6875 -8.25 10.6875 -10 10 C-9.278125 9.46375 -8.55625 8.9275 -7.8125 8.375 C-4.752158 5.7907112 -2.48779989 3.12751986 0 0 Z " fill="#94ab8c" transform="translate(394,583)"/>
  <path d="M0 0 C1.875 0.125 1.875 0.125 4 1 C4.71706982 2.98248715 5.38290413 4.98415349 6 7 C6.99 7.66 7.98 8.32 9 9 C6.29068581 8.84518205 4.53415961 8.51827919 2.5546875 6.59765625 C1.32320358 5.10228292 0.1570163 3.5537076 -1 2 C-0.67 1.34 -0.34 0.68 0 0 Z " fill="#869c7f" transform="translate(191,561)"/>
  <path d="M0 0 C0.66 0 1.32 0 2 0 C2 5.28 2 10.56 2 16 C1.34 16 0.68 16 0 16 C-0.33 16.66 -0.66 17.32 -1 18 C-0.505 9.09 -0.505 9.09 0 0 Z " fill="#99b091" transform="translate(368,473)"/>
  <path d="M0 0 C6.75 0.875 6.75 0.875 9 2 C9 2.66 9 3.32 9 4 C5.62182575 4.84454356 3.32534757 5.10844919 0 4 C0 2.68 0 1.36 0 0 Z " fill="#556c51" transform="translate(250,248)"/>
  <path d="M0 0 C0.99 0.33 1.98 0.66 3 1 C3.33 2.65 3.66 4.3 4 6 C3.67 5.34 3.34 4.68 3 4 C2.34 4 1.68 4 1 4 C1 4.99 1 5.98 1 7 C-3.875 5.25 -3.875 5.25 -5 3 C-4.360625 2.690625 -3.72125 2.38125 -3.0625 2.0625 C-1.06389179 1.1654837 -1.06389179 1.1654837 0 0 Z " fill="#556b50" transform="translate(272,241)"/>
  <path d="M0 0 C0.66 0 1.32 0 2 0 C2.33 2.97 2.66 5.94 3 9 C2.34 9 1.68 9 1 9 C1 8.34 1 7.68 1 7 C0.01 7 -0.98 7 -2 7 C-2 5.35 -2 3.7 -2 2 C-1.34 2 -0.68 2 0 2 C0 1.34 0 0.68 0 0 Z " fill="#809679" transform="translate(356,203)"/>
  <path d="M0 0 C0.66 0.99 1.32 1.98 2 3 C2.99 3 3.98 3 5 3 C5 4.32 5 5.64 5 7 C5.66 7 6.32 7 7 7 C6.67 8.32 6.34 9.64 6 11 C6 10.34 6 9.68 6 9 C5.01 9 4.02 9 3 9 C3 7.68 3 6.36 3 5 C2.34 5 1.68 5 1 5 C0.67 5.99 0.34 6.98 0 8 C-1.43088528 5.13822943 -0.59991697 3.06624227 0 0 Z " fill="#93aa8b" transform="translate(127,323)"/>
  <path d="M0 0 C2.3125 0.1875 2.3125 0.1875 5 1 C8.06496505 4.93240799 8.336093 7.90893105 8.1875 12.8125 C8.16042969 13.97394531 8.13335937 15.13539063 8.10546875 16.33203125 C8.07066406 17.21246094 8.03585937 18.09289062 8 19 C7.67 19 7.34 19 7 19 C6.95101563 18.14535156 6.90203125 17.29070312 6.8515625 16.41015625 C6.77679688 15.30542969 6.70203125 14.20070313 6.625 13.0625 C6.52058594 11.40927734 6.52058594 11.40927734 6.4140625 9.72265625 C6.27742188 8.82417969 6.14078125 7.92570312 6 7 C5.34 6.67 4.68 6.34 4 6 C3.375 3.4375 3.375 3.4375 3 1 C2.01 0.67 1.02 0.34 0 0 Z " fill="#60775c" transform="translate(276,259)"/>
  <path d="M0 0 C0 3.96492963 -0.95976805 6.74305306 -3.5 9.8125 C-5 11 -5 11 -7 11 C-6.6875 9.0625 -6.6875 9.0625 -6 7 C-5.01 6.67 -4.02 6.34 -3 6 C-2.814375 4.7934375 -2.814375 4.7934375 -2.625 3.5625 C-2.41875 2.716875 -2.2125 1.87125 -2 1 C-1.34 0.67 -0.68 0.34 0 0 Z " fill="#95ac8e" transform="translate(181,444)"/>
  <path d="M0 0 C0.66 0 1.32 0 2 0 C2 0.66 2 1.32 2 2 C2.99 2 3.98 2 5 2 C4.67 3.32 4.34 4.64 4 6 C4 5.34 4 4.68 4 4 C3.01 4.66 2.02 5.32 1 6 C-1.1875 5.625 -1.1875 5.625 -3 5 C-1.625 2.5 -1.625 2.5 0 0 Z " fill="#9cb293" transform="translate(191,268)"/>
  <path d="M0 0 C2.97 0.99 5.94 1.98 9 3 C8.01 3.33 7.02 3.66 6 4 C6 4.66 6 5.32 6 6 C5.34 6 4.68 6 4 6 C4 5.34 4 4.68 4 4 C2.02 4.33 0.04 4.66 -2 5 C-2 4.01 -2 3.02 -2 2 C-1.34 2 -0.68 2 0 2 C0 1.34 0 0.68 0 0 Z " fill="#80977a" transform="translate(259,250)"/>
  <path d="M0 0 C0.33 0 0.66 0 1 0 C1.22580354 3.43658708 1.42762697 6.87417218 1.625 10.3125 C1.68945312 11.28896484 1.75390625 12.26542969 1.8203125 13.27148438 C1.871875 14.20927734 1.9234375 15.14707031 1.9765625 16.11328125 C2.02893066 16.97735596 2.08129883 17.84143066 2.13525391 18.73168945 C2 21 2 21 0 24 C-1.14702282 18.74918443 -0.93088566 13.93483462 -0.5625 8.625 C-0.51029297 7.79355469 -0.45808594 6.96210938 -0.40429688 6.10546875 C-0.27561269 4.06991892 -0.13864593 2.03489559 0 0 Z " fill="#5c7358" transform="translate(365,207)"/>
  <path d="M0 0 C1.65 0 3.3 0 5 0 C5 1.32 5 2.64 5 4 C2 6 2 6 -0.1875 5.625 C-0.785625 5.41875 -1.38375 5.2125 -2 5 C-1.34 3.35 -0.68 1.7 0 0 Z " fill="#485e45" transform="translate(354,192)"/>
  <path d="M0 0 C0.7940625 0.07863281 1.588125 0.15726563 2.40625 0.23828125 C4.5 0.6875 4.5 0.6875 6.5 2.6875 C5.08456585 2.88408808 3.66755969 3.06937546 2.25 3.25 C1.46109375 3.35441406 0.6721875 3.45882812 -0.140625 3.56640625 C-2.50532874 3.68777349 -4.2511037 3.38383257 -6.5 2.6875 C-6.5 2.0275 -6.5 1.3675 -6.5 0.6875 C-4.02756353 -0.54871824 -2.72682061 -0.29658601 0 0 Z " fill="#96ad8e" transform="translate(267.5,588.312)"/>
  <path d="M0 0 C0.33 0 0.66 0 1 0 C2.13253652 6.22895086 1.70366626 10.91748904 0 17 C-0.66 17 -1.32 17 -2 17 C-1.03644647 5.47835991 -1.03644647 5.47835991 0 0 Z " fill="#657c60" transform="translate(396,476)"/>
  <path d="M0 0 C-0.33 1.32 -0.66 2.64 -1 4 C-3.31 4 -5.62 4 -8 4 C-8.33 3.01 -8.66 2.02 -9 1 C-5.8035914 -0.06546953 -3.34252724 -0.07427838 0 0 Z " fill="#546a50" transform="translate(352,256)"/>
  <path d="M0 0 C2 3 2 3 2 6 C2.66 6.66 3.32 7.32 4 8 C3.21625 8.103125 2.4325 8.20625 1.625 8.3125 C-1.33045181 8.77595022 -1.33045181 8.77595022 -3 12 C-2.14285714 3.42857143 -2.14285714 3.42857143 0 0 Z " fill="#52684e" transform="translate(234,110)"/>
  <path d="M0 0 C1.98 0.66 3.96 1.32 6 2 C5.4225 2.12375 4.845 2.2475 4.25 2.375 C1.97664233 3.00648824 0.0746471 3.88858191 -2 5 C-2.33 4.67 -2.66 4.34 -3 4 C-4.155 3.855625 -5.31 3.71125 -6.5 3.5625 C-7.655 3.376875 -8.81 3.19125 -10 3 C-10.33 2.34 -10.66 1.68 -11 1 C-10.28972656 1.01160156 -9.57945312 1.02320313 -8.84765625 1.03515625 C-7.92855469 1.04417969 -7.00945312 1.05320312 -6.0625 1.0625 C-4.68771484 1.07990234 -4.68771484 1.07990234 -3.28515625 1.09765625 C-1.03406673 1.25949049 -1.03406673 1.25949049 0 0 Z " fill="#5c7257" transform="translate(253,590)"/>
  <path d="M0 0 C1.65 0.33 3.3 0.66 5 1 C5 1.99 5 2.98 5 4 C4.34 4 3.68 4 3 4 C2.67 4.99 2.34 5.98 2 7 C0.4375 5.75 0.4375 5.75 -1 4 C-0.6875 1.8125 -0.6875 1.8125 0 0 Z " fill="#8da486" transform="translate(169,536)"/>
  <path d="M0 0 C0.33 0 0.66 0 1 0 C1 1.65 1 3.3 1 5 C0.34 5 -0.32 5 -1 5 C-1 7.31 -1 9.62 -1 12 C-2.65 12.66 -4.3 13.32 -6 14 C-5.625 12.0625 -5.625 12.0625 -5 10 C-4.34 9.67 -3.68 9.34 -3 9 C-2.34444881 6.47266765 -2.34444881 6.47266765 -2 4 C-1.34 4 -0.68 4 0 4 C0 2.68 0 1.36 0 0 Z " fill="#90a789" transform="translate(305,478)"/>
  <path d="M0 0 C0.33 0.66 0.66 1.32 1 2 C2.9001177 3.24174796 2.9001177 3.24174796 5 4 C5.66 3.67 6.32 3.34 7 3 C5.66666667 5.66666667 4.33333333 8.33333333 3 11 C2.49384702 9.73160474 1.99530901 8.46016898 1.5 7.1875 C1.2215625 6.47980469 0.943125 5.77210938 0.65625 5.04296875 C0 3 0 3 0 0 Z " fill="#4f654b" transform="translate(104,350)"/>
  <path d="M0 0 C0.66 0.33 1.32 0.66 2 1 C1.34 2.98 0.68 4.96 0 7 C-1.98 7 -3.96 7 -6 7 C-4.60667426 3.63279613 -3.0210714 2.0140476 0 0 Z " fill="#53694f" transform="translate(159,136)"/>
  <path d="M0 0 C0.33 1.32 0.66 2.64 1 4 C0.01 4.495 0.01 4.495 -1 5 C-1.65213292 7.02463255 -1.65213292 7.02463255 -2 9 C-3.65 9.33 -5.3 9.66 -7 10 C-6.02223933 8.51990357 -5.0427506 7.04094856 -4.0625 5.5625 C-3.51722656 4.73878906 -2.97195313 3.91507812 -2.41015625 3.06640625 C-1 1 -1 1 0 0 Z " fill="#556b50" transform="translate(315,502)"/>
  <path d="M0 0 C0.66 0.33 1.32 0.66 2 1 C2 1.66 2 2.32 2 3 C3.65 3 5.3 3 7 3 C7 3.33 7 3.66 7 4 C1.72 4 -3.56 4 -9 4 C-8.01 3.01 -7.02 2.02 -6 1 C-2.8125 1.3125 -2.8125 1.3125 0 2 C0 1.34 0 0.68 0 0 Z " fill="#98af90" transform="translate(265,425)"/>
  <path d="M0 0 C0.33 0 0.66 0 1 0 C1.125 5.75 1.125 5.75 0 8 C-1.32 7.67 -2.64 7.34 -4 7 C-3.67 5.35 -3.34 3.7 -3 2 C-2.01 2 -1.02 2 0 2 C0 1.34 0 0.68 0 0 Z " fill="#92a98a" transform="translate(196,248)"/>
  <path d="M0 0 C0.66 0 1.32 0 2 0 C2 1.65 2 3.3 2 5 C0.35 5.66 -1.3 6.32 -3 7 C-2.25 2.25 -2.25 2.25 0 0 Z " fill="#6a8064" transform="translate(330,572)"/>
  <path d="M0 0 C5.28 0.66 10.56 1.32 16 2 C16 2.33 16 2.66 16 3 C10.06 3 4.12 3 -2 3 C-1.34 2.67 -0.68 2.34 0 2 C0 1.34 0 0.68 0 0 Z " fill="#7c9376" transform="translate(260,558)"/>
  <path d="M0 0 C0 0.99 0 1.98 0 3 C-0.66 3 -1.32 3 -2 3 C-2.33 3.99 -2.66 4.98 -3 6 C-5.64 6.33 -8.28 6.66 -11 7 C-9.59257978 4.18515955 -7.74442408 3.72516601 -4.9375 2.375 C-4.01839844 1.92898438 -3.09929687 1.48296875 -2.15234375 1.0234375 C-1.44207031 0.68570312 -0.73179687 0.34796875 0 0 Z " fill="#586e54" transform="translate(230,434)"/>
  <path d="M0 0 C0.99 0.33 1.98 0.66 3 1 C3 4.3 3 7.6 3 11 C2.67 11 2.34 11 2 11 C1.67 9.35 1.34 7.7 1 6 C0.34 6.66 -0.32 7.32 -1 8 C-1.125 2.25 -1.125 2.25 0 0 Z " fill="#566c52" transform="translate(111,263)"/>
  <path d="M0 0 C0.33 0 0.66 0 1 0 C1.309375 0.94875 1.61875 1.8975 1.9375 2.875 C2.87394742 5.86080408 2.87394742 5.86080408 4 8 C2.68 7.67 1.36 7.34 0 7 C0 7.66 0 8.32 0 9 C-0.99 9 -1.98 9 -3 9 C-3 7.35 -3 5.7 -3 4 C-2.01 4.33 -1.02 4.66 0 5 C0 3.35 0 1.7 0 0 Z " fill="#687e63" transform="translate(195,256)"/>
  <path d="M0 0 C0.66 0.33 1.32 0.66 2 1 C2 1.66 2 2.32 2 3 C1.01 3.495 1.01 3.495 0 4 C-0.33 4.99 -0.66 5.98 -1 7 C-1 6.34 -1 5.68 -1 5 C-1.99 5 -2.98 5 -4 5 C-4 5.66 -4 6.32 -4 7 C-4.66 7 -5.32 7 -6 7 C-6 5.35 -6 3.7 -6 2 C-4 2 -2 2 0 2 C0 1.34 0 0.68 0 0 Z " fill="#5e7459" transform="translate(111,256)"/>
  <path d="M0 0 C1.5 1.375 1.5 1.375 3 3 C3 3.66 3 4.32 3 5 C1.02 5.66 -0.96 6.32 -3 7 C-2.25 2.25 -2.25 2.25 0 0 Z " fill="#485e45" transform="translate(180,143)"/>
  <path d="M0 0 C0.33 0.66 0.66 1.32 1 2 C0.01 2 -0.98 2 -2 2 C-2 3.65 -2 5.3 -2 7 C-3.65 7.33 -5.3 7.66 -7 8 C-7 5 -7 5 -5.1875 2.875 C-3 1 -3 1 0 0 Z " fill="#839a7d" transform="translate(337,535)"/>
  <path d="M0 0 C0.12375 0.639375 0.2475 1.27875 0.375 1.9375 C0.58125 2.618125 0.7875 3.29875 1 4 C1.66 4.33 2.32 4.66 3 5 C2.34 5 1.68 5 1 5 C0.67 9.29 0.34 13.58 0 18 C-0.33 18 -0.66 18 -1 18 C-1.02707139 15.75006641 -1.04642829 13.50003905 -1.0625 11.25 C-1.07410156 9.99703125 -1.08570313 8.7440625 -1.09765625 7.453125 C-1.02021027 4.71463499 -0.82780815 2.58119707 0 0 Z " fill="#6d8367" transform="translate(366,483)"/>
  <path d="M0 0 C0.66 0 1.32 0 2 0 C2.04241723 2.33294775 2.04092937 4.66702567 2 7 C1.67 7.33 1.34 7.66 1 8 C0.63239269 10.32817964 0.29758419 12.6618385 0 15 C-0.33 15 -0.66 15 -1 15 C-1.10251672 9.87416389 -1.03590199 5.05002222 0 0 Z " fill="#667c61" transform="translate(398,461)"/>
  <path d="M0 0 C1.32 0 2.64 0 4 0 C4.33 2.97 4.66 5.94 5 9 C2.5 6.75 2.5 6.75 0 4 C0 2.68 0 1.36 0 0 Z " fill="#96ad8e" transform="translate(152,366)"/>
  <path d="M0 0 C0.99 0.33 1.98 0.66 3 1 C3 1.66 3 2.32 3 3 C3.66 3 4.32 3 5 3 C5 4.98 5 6.96 5 9 C4.34 9 3.68 9 3 9 C3 8.01 3 7.02 3 6 C2.34 6 1.68 6 1 6 C0.67 4.02 0.34 2.04 0 0 Z " fill="#99b091" transform="translate(191,228)"/>
  <path d="M0 0 C0.33 0.66 0.66 1.32 1 2 C0.67 2.99 0.34 3.98 0 5 C0.66 5.33 1.32 5.66 2 6 C-1 8 -1 8 -4 8 C-2.25 2.25 -2.25 2.25 0 0 Z " fill="#8fa687" transform="translate(404,568)"/>
  <path d="M0 0 C0.66 0 1.32 0 2 0 C2.33 1.65 2.66 3.3 3 5 C2.01 5.495 2.01 5.495 1 6 C-0.13350534 8.01669827 -0.13350534 8.01669827 -1 10 C-1.9765625 3.9453125 -1.9765625 3.9453125 -2 2 C-1.34 1.34 -0.68 0.68 0 0 Z " fill="#657c60" transform="translate(197,510)"/>
  <path d="M0 0 C0.66 0 1.32 0 2 0 C2 0.66 2 1.32 2 2 C2.99 2 3.98 2 5 2 C4.67 3.98 4.34 5.96 4 8 C3.34 8 2.68 8 2 8 C-0.1519437 4.77208445 -0.20086443 3.71599191 0 0 Z " fill="#7b9275" transform="translate(339,264)"/>
  <path d="M0 0 C0 0.66 0 1.32 0 2 C0.66 2.33 1.32 2.66 2 3 C-1.63 3.66 -5.26 4.32 -9 5 C-8.67 4.01 -8.34 3.02 -8 2 C-5.10441559 0.5522078 -3.25811062 0 0 0 Z " fill="#556b50" transform="translate(286,554)"/>
  <path d="M0 0 C1.32 0 2.64 0 4 0 C3.74438677 2.3431213 3.40729228 4.67843403 3 7 C2.01 7.495 2.01 7.495 1 8 C0.67 5.36 0.34 2.72 0 0 Z " fill="#50664c" transform="translate(193,496)"/>
  <path d="M0 0 C0.33 0 0.66 0 1 0 C1 2.97 1 5.94 1 9 C1.99 9.33 2.98 9.66 4 10 C3.01 11.32 2.02 12.64 1 14 C-0.04976964 10.85069107 -0.10131595 8.61185544 -0.0625 5.3125 C-0.05347656 4.31863281 -0.04445312 3.32476562 -0.03515625 2.30078125 C-0.02355469 1.54152344 -0.01195312 0.78226562 0 0 Z " fill="#596f54" transform="translate(241,480)"/>
  <path d="M0 0 C0.33 0.66 0.66 1.32 1 2 C-0.625 4 -0.625 4 -3 6 C-6.25 6.25 -6.25 6.25 -9 6 C-6.11964908 3.75972706 -3.15133488 1.83827868 0 0 Z " fill="#52684e" transform="translate(175,376)"/>
  <path d="M0 0 C-0.66 1.32 -1.32 2.64 -2 4 C-2.66 4 -3.32 4 -4 4 C-4 4.99 -4 5.98 -4 7 C-4.66 6.67 -5.32 6.34 -6 6 C-6.625 3.9375 -6.625 3.9375 -7 2 C-2.25 0 -2.25 0 0 0 Z " fill="#4a6047" transform="translate(135,345)"/>
  <path d="M0 0 C0.66 0.33 1.32 0.66 2 1 C-0.33846154 6.66153846 -0.33846154 6.66153846 -3.6875 8.375 C-4.450625 8.58125 -5.21375 8.7875 -6 9 C-6.33 8.34 -6.66 7.68 -7 7 C-5 5 -5 5 -2.9375 4.0625 C-0.65434116 3.09596458 -0.65434116 3.09596458 0 0 Z " fill="#9cb394" transform="translate(319,324)"/>
  <path d="M0 0 C0.99 0.33 1.98 0.66 3 1 C3 4.96 3 8.92 3 13 C1.26315467 9.52630934 0.69915888 7.92380063 0.375 4.25 C0.30023438 3.45078125 0.22546875 2.6515625 0.1484375 1.828125 C0.09945312 1.22484375 0.05046875 0.6215625 0 0 Z " fill="#50664c" transform="translate(76,264)"/>
  <path d="M0 0 C2 2 2 2 2.1953125 3.9453125 C2.13020833 5.96354167 2.06510417 7.98177083 2 10 C1.01 9.67 0.02 9.34 -1 9 C-0.67 6.03 -0.34 3.06 0 0 Z " fill="#758b6f" transform="translate(178,541)"/>
  <path d="M0 0 C1.32 0.99 2.64 1.98 4 3 C2.625 5 2.625 5 1 7 C0.34 7 -0.32 7 -1 7 C-1.04254356 5.00045254 -1.04080783 2.99958364 -1 1 C-0.67 0.67 -0.34 0.34 0 0 Z " fill="#9fb697" transform="translate(205,448)"/>
  <path d="M0 0 C0.99 0.33 1.98 0.66 3 1 C3 2.32 3 3.64 3 5 C1 7 1 7 -2.125 7.125 C-3.548125 7.063125 -3.548125 7.063125 -5 7 C-4.360625 6.5875 -3.72125 6.175 -3.0625 5.75 C-0.79009069 3.82189513 -0.39803561 2.88575819 0 0 Z " fill="#4c6248" transform="translate(221,405)"/>
  <path d="M0 0 C0.66 0 1.32 0 2 0 C2 1.32 2 2.64 2 4 C2.99 4 3.98 4 5 4 C4.67 4.99 4.34 5.98 4 7 C2.35 7 0.7 7 -1 7 C-0.34 6.67 0.32 6.34 1 6 C0.67 4.02 0.34 2.04 0 0 Z " fill="#51674d" transform="translate(128,328)"/>
  <path d="M0 0 C0.33 0.99 0.66 1.98 1 3 C1.99 3 2.98 3 4 3 C4.33 6.3 4.66 9.6 5 13 C2.05633121 8.58449682 0 5.38909875 0 0 Z " fill="#8aa183" transform="translate(124,304)"/>
  <path d="M0 0 C0.66 0 1.32 0 2 0 C2.33 1.98 2.66 3.96 3 6 C3.99 6.33 4.98 6.66 6 7 C4.68 7 3.36 7 2 7 C1.67 6.01 1.34 5.02 1 4 C-1.97 3.505 -1.97 3.505 -5 3 C-4.360625 2.690625 -3.72125 2.38125 -3.0625 2.0625 C-1.06389179 1.1654837 -1.06389179 1.1654837 0 0 Z " fill="#879d80" transform="translate(193,272)"/>
  <path d="M0 0 C0.66 0 1.32 0 2 0 C2 1.65 2 3.3 2 5 C-2.455 4.01 -2.455 4.01 -7 3 C-7 2.67 -7 2.34 -7 2 C-4.69 2.33 -2.38 2.66 0 3 C0 2.01 0 1.02 0 0 Z " fill="#60765b" transform="translate(269,249)"/>
  <path d="M0 0 C0.33 0 0.66 0 1 0 C1.125 6.75 1.125 6.75 0 9 C-0.99 8.67 -1.98 8.34 -3 8 C-2.37240135 5.07120629 -1.41377341 2.63904371 0 0 Z " fill="#6b8266" transform="translate(189,210)"/>
  <path d="M0 0 C2.125 0.9375 2.125 0.9375 4 2 C3.34 4.64 2.68 7.28 2 10 C1.67 10 1.34 10 1 10 C1 8.02 1 6.04 1 4 C0.34 4 -0.32 4 -1 4 C-1.33 3.01 -1.66 2.02 -2 1 C-1.34 0.67 -0.68 0.34 0 0 Z " fill="#9eb495" transform="translate(148,144)"/>
  <path d="M0 0 C0 0.66 0 1.32 0 2 C-1.95927063 3.7143618 -3.95880212 5.38405168 -6 7 C-5.625 4.0625 -5.625 4.0625 -5 1 C-3 0 -3 0 0 0 Z " fill="#4f654b" transform="translate(398,578)"/>
  <path d="M0 0 C0.33 0.66 0.66 1.32 1 2 C-2.17320782 5.53586014 -4.16743695 7.58578031 -9 8 C-6.63707344 5.47411298 -5.33537489 4.11179163 -2 3 C-1.34 2.01 -0.68 1.02 0 0 Z " fill="#586e54" transform="translate(351,559)"/>
  <path d="M0 0 C1.41377341 2.63904371 2.37240135 5.07120629 3 8 C2.01 8.33 1.02 8.66 0 9 C-0.66 8.34 -1.32 7.68 -2 7 C-1.34 4.69 -0.68 2.38 0 0 Z " fill="#72886c" transform="translate(172,528)"/>
  <path d="M0 0 C0.33 0 0.66 0 1 0 C1 2.64 1 5.28 1 8 C0.01 8.33 -0.98 8.66 -2 9 C-2 7.02 -2 5.04 -2 3 C-1.34 3 -0.68 3 0 3 C0 2.01 0 1.02 0 0 Z " fill="#70866a" transform="translate(426,520)"/>
  <path d="M0 0 C0.66 0 1.32 0 2 0 C2 0.66 2 1.32 2 2 C2.99 2.33 3.98 2.66 5 3 C4.67 3.99 4.34 4.98 4 6 C4 5.34 4 4.68 4 4 C3.34 4 2.68 4 2 4 C1.67 4.99 1.34 5.98 1 7 C0 6 0 6 -0.0625 2.9375 C-0.041875 1.968125 -0.02125 0.99875 0 0 Z " fill="#475d43" transform="translate(195,506)"/>
  <path d="M0 0 C1.98 0 3.96 0 6 0 C3.9375 2.0625 3.9375 2.0625 1 4 C-2.8125 3.75 -2.8125 3.75 -6 3 C-6 2.67 -6 2.34 -6 2 C-4.35 2 -2.7 2 -1 2 C-0.67 1.34 -0.34 0.68 0 0 Z " fill="#566c52" transform="translate(280,502)"/>
  <path d="M0 0 C1 2 1 2 0.25 5.5625 C-0.1625 6.696875 -0.575 7.83125 -1 9 C-1.99 9.33 -2.98 9.66 -4 10 C-3.52449439 8.51965236 -3.04448784 7.04074979 -2.5625 5.5625 C-2.29566406 4.73878906 -2.02882812 3.91507812 -1.75390625 3.06640625 C-1 1 -1 1 0 0 Z " fill="#5a7156" transform="translate(201,459)"/>
  <path d="M0 0 C1.98 0 3.96 0 6 0 C0.85714286 5.57142857 0.85714286 5.57142857 -3 6 C-2.67 5.34 -2.34 4.68 -2 4 C-1.34 4 -0.68 4 0 4 C0 2.68 0 1.36 0 0 Z " fill="#4b6147" transform="translate(210,412)"/>
  <path d="M0 0 C0.33 0 0.66 0 1 0 C1.20086443 3.71599191 1.1519437 4.77208445 -1 8 C-1.66 8 -2.32 8 -3 8 C-3.33 8.99 -3.66 9.98 -4 11 C-4.1875 8.6875 -4.1875 8.6875 -4 6 C-2.5625 4.375 -2.5625 4.375 -1 3 C-0.67 2.01 -0.34 1.02 0 0 Z " fill="#5b7157" transform="translate(329,271)"/>
  <path d="M0 0 C0.99 0 1.98 0 3 0 C3 0.66 3 1.32 3 2 C3.99 2.33 4.98 2.66 6 3 C5.67 3.66 5.34 4.32 5 5 C3.68 5 2.36 5 1 5 C0.67 3.35 0.34 1.7 0 0 Z " fill="#859c7e" transform="translate(192,265)"/>
  <path d="M0 0 C0.66 0 1.32 0 2 0 C2.33 1.98 2.66 3.96 3 6 C3.66 6 4.32 6 5 6 C4.67 7.32 4.34 8.64 4 10 C3.34 10 2.68 10 2 10 C1.34 6.7 0.68 3.4 0 0 Z " fill="#687e63" transform="translate(203,572)"/>
  <path d="M0 0 C3.375 -0.125 3.375 -0.125 7 0 C7.66 0.66 8.32 1.32 9 2 C8.01 2 7.02 2 6 2 C6 2.66 6 3.32 6 4 C5.01 4 4.02 4 3 4 C3 3.01 3 2.02 3 1 C2.01 0.67 1.02 0.34 0 0 Z " fill="#586e54" transform="translate(254,556)"/>
  <path d="M0 0 C1.3921875 0.3403125 1.3921875 0.3403125 2.8125 0.6875 C1.125 2.25 1.125 2.25 -1.1875 3.6875 C-3.9375 3.375 -3.9375 3.375 -6.1875 2.6875 C-4.14987265 -0.14253799 -3.59070275 -0.35202968 0 0 Z " fill="#91a88a" transform="translate(254.188,556.312)"/>
  <path d="M0 0 C2.97 0 5.94 0 9 0 C9 0.66 9 1.32 9 2 C6.08517222 2.80967438 4.53886783 3.21845993 1.6875 2.0625 C1.130625 1.711875 0.57375 1.36125 0 1 C0 0.67 0 0.34 0 0 Z " fill="#586e54" transform="translate(238,554)"/>
  <path d="M0 0 C0 0.99 0 1.98 0 3 C-2.31 3.33 -4.62 3.66 -7 4 C-7.33 3.01 -7.66 2.02 -8 1 C-2.25 0 -2.25 0 0 0 Z " fill="#899f82" transform="translate(309,551)"/>
  <path d="M0 0 C0.721875 0.144375 1.44375 0.28875 2.1875 0.4375 C3.5796875 0.7159375 3.5796875 0.7159375 5 1 C6.66666667 1.33333333 8.33333333 1.66666667 10 2 C10 2.33 10 2.66 10 3 C7.36 3.33 4.72 3.66 2 4 C2 3.34 2 2.68 2 2 C1.34 2 0.68 2 0 2 C0 1.34 0 0.68 0 0 Z " fill="#4b6147" transform="translate(284,552)"/>
  <path d="M0 0 C0.99 0 1.98 0 3 0 C3 0.66 3 1.32 3 2 C3.66 2.33 4.32 2.66 5 3 C0.56923077 5.09230769 0.56923077 5.09230769 -2.3125 4.625 C-2.869375 4.41875 -3.42625 4.2125 -4 4 C-3.01 3.67 -2.02 3.34 -1 3 C-0.67 2.01 -0.34 1.02 0 0 Z " fill="#5d7358" transform="translate(298,549)"/>
  <path d="M0 0 C0.33 0.66 0.66 1.32 1 2 C3.52733235 2.65555119 3.52733235 2.65555119 6 3 C6.33 3.99 6.66 4.98 7 6 C5.35 5.67 3.7 5.34 2 5 C2 4.34 2 3.68 2 3 C1.01 2.67 0.02 2.34 -1 2 C-0.67 1.34 -0.34 0.68 0 0 Z " fill="#495f46" transform="translate(299,546)"/>
  <path d="M0 0 C2.34058637 2.12780579 3.70700306 4.11562221 5 7 C3.02 7 1.04 7 -1 7 C-0.67 4.69 -0.34 2.38 0 0 Z " fill="#95ac8d" transform="translate(314,431)"/>
  <path d="M0 0 C2.76223278 2.76223278 2.57856291 5.20706617 3 9 C2.01 9.495 2.01 9.495 1 10 C0.37542727 6.56484998 0 3.50935186 0 0 Z " fill="#9fb697" transform="translate(113,378)"/>
  <path d="M0 0 C2.475 0.495 2.475 0.495 5 1 C5 2.32 5 3.64 5 5 C3.68 5 2.36 5 1 5 C0.67 3.35 0.34 1.7 0 0 Z " fill="#a3ba9a" transform="translate(361,269)"/>
  <path d="M0 0 C0.33 0 0.66 0 1 0 C1.33 2.64 1.66 5.28 2 8 C-0.64 7.34 -3.28 6.68 -6 6 C-6 5.67 -6 5.34 -6 5 C-4.35 5 -2.7 5 -1 5 C-0.67 3.35 -0.34 1.7 0 0 Z " fill="#849b7d" transform="translate(280,253)"/>
  <path d="M0 0 C0.33 0 0.66 0 1 0 C1.33 2.97 1.66 5.94 2 9 C1.34 9 0.68 9 0 9 C0 9.99 0 10.98 0 12 C-0.66 12 -1.32 12 -2 12 C-1.34 8.04 -0.68 4.08 0 0 Z " fill="#72896d" transform="translate(187,201)"/>
  <path d="M0 0 C0.66 0 1.32 0 2 0 C2.33 1.98 2.66 3.96 3 6 C1.68 6 0.36 6 -1 6 C-0.67 4.02 -0.34 2.04 0 0 Z " fill="#93aa8c" transform="translate(267,179)"/>
  <path d="M0 0 C2.50037734 2.17424117 3.43628586 3.73045798 4 7 C3.01 6.67 2.02 6.34 1 6 C0.34 6.66 -0.32 7.32 -1 8 C-0.67 5.36 -0.34 2.72 0 0 Z " fill="#5b7156" transform="translate(363,144)"/>
  <path d="M0 0 C2.31 0 4.62 0 7 0 C6.67 0.99 6.34 1.98 6 3 C4.02 3.33 2.04 3.66 0 4 C0 2.66666667 0 1.33333333 0 0 Z " fill="#4a6046" transform="translate(245,599)"/>
  <path d="M0 0 C0.99 0.33 1.98 0.66 3 1 C3 1.66 3 2.32 3 3 C3.66 3.33 4.32 3.66 5 4 C4.67 4.99 4.34 5.98 4 7 C3.34 7 2.68 7 2 7 C1.34 4.69 0.68 2.38 0 0 Z " fill="#4f654b" transform="translate(235,587)"/>
  <path d="M0 0 C2.31 0.33 4.62 0.66 7 1 C6.67 2.32 6.34 3.64 6 5 C5.34 5 4.68 5 4 5 C4 4.01 4 3.02 4 2 C2.68 2 1.36 2 0 2 C0 1.34 0 0.68 0 0 Z " fill="#8fa687" transform="translate(218,581)"/>
  <path d="M0 0 C0.33 0.66 0.66 1.32 1 2 C0.34 2 -0.32 2 -1 2 C-1 2.66 -1 3.32 -1 4 C-2.98 4.33 -4.96 4.66 -7 5 C-7 4.34 -7 3.68 -7 3 C-6.01 3 -5.02 3 -4 3 C-4 2.34 -4 1.68 -4 1 C-2.68 0.67 -1.36 0.34 0 0 Z " fill="#62785d" transform="translate(348,525)"/>
  <path d="M0 0 C0.33 0 0.66 0 1 0 C1.24042276 4.08718695 0.42258812 7.17679443 -1 11 C-3 8 -3 8 -3 4 C-2.01 4 -1.02 4 0 4 C0 2.68 0 1.36 0 0 Z " fill="#93aa8b" transform="translate(167,481)"/>
  <path d="M0 0 C0.66 0 1.32 0 2 0 C1.34 2.97 0.68 5.94 0 9 C-0.33 9 -0.66 9 -1 9 C-1.33 6.69 -1.66 4.38 -2 2 C-1.34 2 -0.68 2 0 2 C0 1.34 0 0.68 0 0 Z " fill="#5e7459" transform="translate(467,370)"/>
  <path d="M0 0 C0.28875 0.598125 0.5775 1.19625 0.875 1.8125 C2.04742026 4.19327792 2.04742026 4.19327792 4 7 C4 7.99 4 8.98 4 10 C3.34 10 2.68 10 2 10 C-1.07692308 4.58461538 -1.07692308 4.58461538 -0.6875 1.625 C-0.460625 1.08875 -0.23375 0.5525 0 0 Z " fill="#4e644a" transform="translate(123,304)"/>
  <path d="M0 0 C0.33 0 0.66 0 1 0 C1 2.31 1 4.62 1 7 C0.34 7 -0.32 7 -1 7 C-1.33 7.99 -1.66 8.98 -2 10 C-1.125 2.25 -1.125 2.25 0 0 Z " fill="#566c52" transform="translate(422,530)"/>
  <path d="M0 0 C0.33 0.66 0.66 1.32 1 2 C0.06421005 4.35981813 -0.93347808 6.69631264 -2 9 C-2.33 9 -2.66 9 -3 9 C-3 6.36 -3 3.72 -3 1 C-2.01 0.67 -1.02 0.34 0 0 Z " fill="#90a688" transform="translate(426,528)"/>
  <path d="M0 0 C0.66 0 1.32 0 2 0 C2.33 1.65 2.66 3.3 3 5 C1.02 5.33 -0.96 5.66 -3 6 C-2.34 5.34 -1.68 4.68 -1 4 C-0.3574765 1.93125966 -0.3574765 1.93125966 0 0 Z " fill="#50664c" transform="translate(348,520)"/>
  <path d="M0 0 C0.66 0.33 1.32 0.66 2 1 C0.68 3.31 -0.64 5.62 -2 8 C-2.33 8 -2.66 8 -3 8 C-3.1875 5.125 -3.1875 5.125 -3 2 C-2.01 1.34 -1.02 0.68 0 0 Z " fill="#667c61" transform="translate(355,514)"/>
  <path d="M0 0 C1.65 0.99 3.3 1.98 5 3 C3.68 3.99 2.36 4.98 1 6 C0.34 5.34 -0.32 4.68 -1 4 C-0.625 1.875 -0.625 1.875 0 0 Z " fill="#485e44" transform="translate(233,514)"/>
  <path d="M0 0 C0.66 0.66 1.32 1.32 2 2 C0.625 3.5 0.625 3.5 -1 5 C-1.66 5 -2.32 5 -3 5 C-3.33 5.99 -3.66 6.98 -4 8 C-4.33 6.68 -4.66 5.36 -5 4 C-4.34 4 -3.68 4 -3 4 C-3 3.34 -3 2.68 -3 2 C-2.01 2 -1.02 2 0 2 C0 1.34 0 0.68 0 0 Z " fill="#9cb394" transform="translate(217,439)"/>
  <path d="M0 0 C0.66 0 1.32 0 2 0 C1.67 3.3 1.34 6.6 1 10 C0.67 10 0.34 10 0 10 C-0.19412181 8.52168779 -0.38012131 7.04230684 -0.5625 5.5625 C-0.66691406 4.73878906 -0.77132813 3.91507812 -0.87890625 3.06640625 C-0.91886719 2.38449219 -0.95882813 1.70257813 -1 1 C-0.67 0.67 -0.34 0.34 0 0 Z " fill="#5e7459" transform="translate(449,423)"/>
  <path d="M0 0 C0.99 0.33 1.98 0.66 3 1 C2.67 2.98 2.34 4.96 2 7 C0.68 6.67 -0.64 6.34 -2 6 C-1.34 6 -0.68 6 0 6 C0 4.02 0 2.04 0 0 Z " fill="#53694f" transform="translate(410,399)"/>
  <path d="M0 0 C0.99 0 1.98 0 3 0 C3 3.96 3 7.92 3 12 C2.67 12 2.34 12 2 12 C1.93941406 11.38511719 1.87882812 10.77023437 1.81640625 10.13671875 C1.73261719 9.32847656 1.64882813 8.52023437 1.5625 7.6875 C1.48128906 6.88699219 1.40007812 6.08648437 1.31640625 5.26171875 C1.04734307 2.83912821 1.04734307 2.83912821 0 0 Z " fill="#95ab8d" transform="translate(364,356)"/>
  <path d="M0 0 C0.99 0.33 1.98 0.66 3 1 C2.814375 1.7425 2.62875 2.485 2.4375 3.25 C2.00796892 5.94990963 2.14877026 7.44631077 3 10 C0.52098038 8.05989769 0.00329768 7.01374033 -0.75 3.875 C-0.8325 2.92625 -0.915 1.9775 -1 1 C-0.67 0.67 -0.34 0.34 0 0 Z " fill="#5a7055" transform="translate(101,340)"/>
  <path d="M0 0 C0.99 0 1.98 0 3 0 C3.33 1.65 3.66 3.3 4 5 C2.35 4.67 0.7 4.34 -1 4 C-0.67 2.68 -0.34 1.36 0 0 Z " fill="#768c70" transform="translate(135,332)"/>
  <path d="M0 0 C0 3.63 0 7.26 0 11 C-0.33 11 -0.66 11 -1 11 C-1.66 7.7 -2.32 4.4 -3 1 C-1 0 -1 0 0 0 Z " fill="#8ea486" transform="translate(371,152)"/>
</svg>
